<svg width="163" height="405" viewBox="0 0 163 405" fill="none" xmlns="http://www.w3.org/2000/svg">
<g clip-path="url(#clip0_289_1616)" filter="url(#filter0_d_289_1616)">
<path d="M74.0359 6.02229C75.1186 3.41253 77.4974 4.40548 79.1266 4.64982C81.1722 4.96175 81.6719 7.04644 81.8958 9.01156C82.1404 11.1846 82.3174 13.4149 82.9524 15.484C84.0819 19.1647 86.2421 21.8264 90.2345 23.1469C92.0563 23.75 93.7792 25.7047 94.8046 27.4774C98.0215 33.0141 100.931 38.7327 103.883 44.4201C107.927 52.213 112.039 59.9747 115.87 67.8715C122.996 82.5527 129.674 97.4575 134.104 113.194C136.904 123.144 139.033 133.292 141.162 143.414C143.109 152.658 144.728 161.979 146.357 171.285C147.377 177.123 148.304 182.982 148.991 188.867C151.885 213.821 150.282 238.878 150.49 263.89C150.578 274.188 149.496 284.461 147.544 294.64C145.998 302.698 145.102 310.876 143.791 318.98C142.698 325.734 141.334 332.44 140.236 339.188C139.08 346.289 138.164 353.432 137.024 360.539C135.889 367.625 134.692 374.706 133.354 381.755C132.725 385.082 130.372 386.585 126.312 386.611C119.894 386.647 113.47 386.554 107.058 386.642C101.368 386.72 95.6791 386.902 90.0003 387.183C88.2565 387.271 86.4347 387.598 84.8419 388.264C83.8425 388.68 83.1762 389.922 82.4111 390.832C82.2185 391.066 82.2705 391.726 82.1352 391.752C79.8293 392.163 77.5078 392.771 75.1967 392.73C74.1608 392.709 72.5108 391.513 72.2609 390.557C71.7352 388.534 70.2986 388.009 68.7839 387.728C66.6133 387.328 64.3699 387.198 62.1524 387.157C50.7427 386.943 39.3277 386.803 27.9179 386.611C24.1701 386.548 21.6352 384.479 21.0158 380.773C19.7249 373.016 18.6006 365.228 17.3201 357.467C16.0136 349.549 14.5509 341.657 13.2444 333.74C12.1149 326.893 11.1363 320.025 10.038 313.173C9.08545 307.252 7.99757 301.346 7.08145 295.42C6.42039 291.152 5.93631 286.852 5.57715 282.392C6.98255 283.307 8.10167 285.314 9.82459 282.943C11.662 280.422 13.3433 277.791 15.0662 275.192C15.3473 274.771 15.5295 274.256 15.644 273.762C16.3051 270.877 16.9349 267.986 17.5647 265.096C18.5329 260.651 19.8602 256.247 20.3703 251.751C21.1979 244.493 21.6196 237.178 21.9683 229.874C22.5981 216.794 23.051 203.704 23.5767 190.411C23.5767 189.652 23.5767 189.095 23.7121 188.388C24.1024 186.6 24.3575 184.968 24.6178 183.112C24.7947 181.131 24.9717 179.379 25.258 177.523C25.4662 177.138 25.5599 176.858 25.6536 176.359C25.6536 175.423 25.664 174.7 25.7785 173.884C25.9867 173.499 26.0804 173.219 26.1741 172.719C26.1741 171.784 26.1793 171.061 26.3042 170.219C26.5125 169.657 26.6061 169.216 26.6946 168.54C26.6998 166.731 26.7103 165.161 26.8924 163.539C27.2932 162.826 27.5119 162.161 27.7357 161.293C27.7357 160.534 27.7357 159.977 27.8606 159.302C28.0688 158.74 28.1625 158.298 28.251 157.633C28.5997 154.612 28.9485 151.821 29.3961 148.94C29.4326 148.566 29.3701 148.275 29.3285 147.797C29.5106 146.866 29.6616 146.123 29.9375 145.265C30.1509 144.704 30.2394 144.262 30.3331 143.648C30.3331 143.248 30.3331 143.019 30.4684 142.634C32.691 134.592 34.0808 126.435 37.0113 118.866C43.5855 101.892 50.8676 85.1885 57.9675 68.4226C61.1426 60.926 64.5781 53.5335 67.8938 46.0941C68.0708 45.699 68.1957 45.2675 68.4455 44.9244C69.2784 43.8066 70.4235 43.6871 70.7358 45.0751C71.0898 46.6555 70.9648 48.4075 70.7254 50.0347C70.5276 51.3604 69.8509 52.6133 69.2992 54.0533C66.1709 59.6004 63.0425 64.9499 60.1172 70.4033C58.3735 73.6525 56.9368 77.0681 55.2816 80.5668C54.7298 81.8301 54.2562 82.9375 53.6524 84.1436C53.262 84.8766 53.0121 85.5108 52.6373 86.2698C52.4031 86.9873 52.2886 87.5799 52.0075 88.2142C50.9144 89.4931 49.1447 90.46 50.4772 92.5447C50.1336 93.0802 49.8474 93.4805 49.3945 93.9276C48.6762 95.0089 48.1296 96.0382 47.5102 97.2184C47.3124 97.7798 47.1927 98.1957 46.9168 98.7156C44.6161 104.309 42.4664 109.799 40.2177 115.45C39.0986 119.625 38.0784 123.633 36.8864 127.719C36.3607 128.639 35.8558 129.45 35.6788 130.329C34.5649 135.845 33.5239 141.382 32.4099 147.116C31.3012 154.41 30.2446 161.501 29.1827 168.586C29.3753 168.628 29.5679 168.664 29.7605 168.706C30.7235 165.093 31.6864 161.48 32.6494 157.867C32.9565 157.815 33.2636 157.758 33.5655 157.706C37.5214 162.894 42.7266 165.472 49.332 165.602C50.6073 165.623 51.664 165.634 52.7779 165.758C52.9497 166.003 53.085 166.101 53.2359 166.361C52.9392 167.157 52.6217 167.755 52.3615 168.373C51.4297 170.578 50.243 172.719 49.6704 175.012C48.9208 178.001 48.6554 181.11 48.1973 184.172C47.4842 188.934 46.5889 193.707 48.5825 198.594C49.863 199.524 51.0498 200.725 52.3719 200.902C54.2874 201.157 56.3018 200.6 58.2798 200.522C67.7741 200.143 77.2683 199.8 86.7626 199.457C92.0771 199.264 97.402 198.911 102.711 199.004C106.922 199.082 111.232 199.285 115.287 200.288C117.884 200.928 121.138 201.489 122.252 204.619C115.095 203.917 108.161 202.888 101.197 202.664C90.8383 202.331 80.4643 202.503 70.0956 202.591C62.3086 202.654 54.5164 202.716 46.7451 203.168C41.5138 203.47 36.3138 204.406 31.1138 205.144C28.1625 205.56 26.2834 207.437 26.1325 210.311C25.8358 215.9 25.9191 221.51 25.8566 227.109C25.8566 227.249 26.0388 227.389 26.1429 227.769C26.3199 230.15 26.5229 232.286 26.6686 234.434C27.2776 243.635 35.3613 250.274 43.8874 251.631C44.4287 252.031 44.9232 252.265 45.3917 252.676C44.3715 255.036 42.5861 257.194 42.5288 259.393C42.3675 265.662 42.8776 271.953 43.1847 278.233C43.2888 280.37 44.5485 281.16 46.6722 281.103C52.1429 280.957 57.5823 281.498 63.079 280.198C67.696 279.106 72.7138 280.255 77.2996 278.441C78.6529 277.905 79.8553 277.006 81.1462 276.309C81.7812 275.966 82.6349 275.29 83.0773 275.478C85.0189 276.304 86.4035 275.264 87.8922 274.417C89.5995 273.445 90.8903 271.552 93.3108 272.109C93.5398 272.161 93.9198 271.053 94.3882 270.679C94.966 270.216 95.7051 269.681 96.3818 269.676C98.3598 269.66 100.343 269.889 102.576 270.034C102.212 268.594 101.983 267.705 101.759 266.816C102.024 266.666 102.29 266.52 102.56 266.369C103.242 267.232 104.054 268.028 104.58 268.974C105.449 270.534 106.214 270.419 107.323 269.052C106.303 268.158 105.392 267.362 104.486 266.567C106.136 266.302 107.583 266.068 108.781 265.87C109.447 266.801 110.077 267.679 110.707 268.553C111.633 267.461 112.56 266.364 113.814 264.888C114.694 266.203 115.844 267.549 116.474 269.109C116.625 269.478 115.027 270.549 114.069 271.449C114.694 272.156 115.36 273.538 116.401 273.949C118.67 274.843 120.513 275.779 120.383 278.597C120.284 280.791 120.445 283.026 120.071 285.163C119.399 288.947 116.016 290.013 112.856 291.464C110.868 291.62 109.119 291.776 107.177 291.926C106.615 291.916 106.24 291.905 105.782 291.718C104.174 291.495 102.644 291.448 100.91 291.396C100.156 291.406 99.6038 291.417 98.8699 291.318C98.0891 291.141 97.4905 291.006 96.8971 291.017C88.0275 291.136 79.1578 291.302 70.2882 291.391C63.9014 291.453 57.5146 291.412 50.9613 291.287C48.8271 291.266 46.8596 291.37 44.7202 291.474C44.3298 291.474 44.106 291.479 43.6376 291.474C42.711 291.464 42.0187 291.412 41.3421 291.469C38.1825 291.724 35.4706 291.162 33.503 288.261C32.8628 287.315 31.4001 286.92 30.2029 286.14C28.2458 284.658 26.9757 283 27.1579 280.37C26.7675 279.319 26.3979 278.462 26.0232 277.604C25.7993 277.666 25.5755 277.723 25.3465 277.786C24.8208 280.655 25.2892 283.468 26.1949 286.426C26.1949 286.832 26.1949 287.06 26.1949 287.507C26.3615 288.791 26.5437 289.862 26.7207 291.105C26.7207 291.505 26.7311 291.739 26.7207 292.171C27.0382 293.117 27.3713 293.86 27.7044 294.796C27.7149 295.373 27.7201 295.758 27.6055 296.283C27.7149 297.385 27.9543 298.347 28.1937 299.496C28.2093 300.062 28.2146 300.442 28.1052 300.972C28.225 303.379 28.4019 305.635 28.7455 307.871C28.9225 309.025 29.4065 310.132 29.7553 311.427C29.7657 311.811 29.7761 312.035 29.6616 312.409C29.9791 314.541 30.4216 316.516 30.8536 318.669C30.8536 319.074 30.8536 319.303 30.7287 319.672C30.8536 320.587 31.1034 321.372 31.3585 322.323C31.3689 322.724 31.3741 322.952 31.2492 323.327C31.2804 325.411 31.3897 327.356 31.6135 329.284C32.3891 336.079 33.2011 342.863 34.0027 349.835C34.3411 350.428 34.6742 350.838 35.0177 351.441C35.023 352.024 35.0282 352.413 34.9032 352.944C35.0334 354.03 35.2884 354.976 35.5487 356.115C35.5539 356.697 35.5591 357.087 35.4342 357.623C34.7835 361.023 35.7569 362.447 39.26 362.608C46.313 362.936 53.3765 362.941 60.4295 363.222C63.9118 363.357 67.4149 363.596 70.8451 364.178C73.5674 364.641 76.17 365.582 78.6633 363.56C79.0225 363.268 79.6471 363.227 80.1572 363.201C84.7014 362.967 89.2507 362.806 93.7948 362.535C101.098 362.099 108.395 361.563 115.704 361.137C119.264 360.929 120.326 360.165 120.904 356.666C121.981 350.204 122.986 343.732 123.99 337.259C124.927 331.213 125.807 325.157 126.739 319.105C127.603 313.48 128.394 307.845 129.414 302.251C130.845 294.391 132.891 286.618 133.885 278.711C135.171 268.459 135.728 258.119 136.509 247.81C136.852 243.277 136.915 238.723 137.196 234.184C137.628 227.218 138.336 220.257 138.544 213.285C138.7 207.941 138.502 202.56 138.034 197.231C137.248 188.331 136.165 179.452 135.119 170.578C134.645 166.575 133.963 162.598 133.386 158.605C132.943 155.564 132.667 152.496 132.058 149.492C130.533 141.99 129.123 134.452 127.171 127.054C125.13 119.339 122.647 111.728 120.086 104.164C118.686 100.031 116.849 96.0279 114.98 92.0768C111.144 83.9824 107.177 75.9504 103.221 67.9131C100.452 62.2829 97.7248 56.6267 94.7578 51.1005C92.7226 47.3158 90.3594 43.7027 88.0223 40.0947C87.5434 39.3565 86.5492 38.9302 85.7632 38.4104C84.4827 37.5578 83.5094 37.7553 82.9316 39.2837C82.307 40.9317 81.6511 42.5745 80.8547 44.5916C79.34 40.1675 77.3464 36.2529 76.7322 32.1355C75.7224 25.3356 75.6495 18.4005 75.077 11.5329C74.9208 9.67179 74.4003 7.83664 74.0411 5.9911M90.3854 273.798C90.5 274.037 90.6197 274.277 90.7342 274.521C90.8435 274.427 91.0621 274.266 91.0517 274.245C90.9164 274.022 90.7446 273.824 90.3854 273.804V273.798Z" fill="#DAA58E"/>
<path d="M74.0359 6.02229C75.1186 3.41253 77.4974 4.40548 79.1266 4.64982C81.1722 4.96175 81.6719 7.04644 81.8958 9.01156C82.1404 11.1846 82.3174 13.4149 82.9524 15.484C84.0819 19.1647 86.2421 21.8264 90.2345 23.1469C92.0563 23.7499 93.7792 25.7047 94.8047 27.4774C98.0215 33.0141 100.931 38.7327 103.883 44.4201C107.927 52.213 112.039 59.9747 115.87 67.8715C122.996 82.5528 129.674 97.4575 134.104 113.194C136.904 123.144 139.033 133.292 141.162 143.414C143.109 152.658 144.728 161.979 146.357 171.285C147.377 177.123 148.304 182.982 148.991 188.867C151.885 213.821 150.282 238.878 150.49 263.89C150.578 274.188 149.496 284.461 147.544 294.64C145.998 302.698 145.102 310.876 143.791 318.98C142.698 325.734 141.334 332.44 140.236 339.188C139.08 346.289 138.164 353.432 137.024 360.539C135.889 367.625 134.692 374.706 133.354 381.755C132.725 385.082 130.372 386.585 126.312 386.611C119.894 386.647 113.47 386.554 107.058 386.642C101.368 386.72 95.6791 386.902 90.0003 387.183C88.2565 387.271 86.4347 387.598 84.8419 388.264C83.8425 388.68 83.1762 389.922 82.4111 390.832C82.2185 391.066 82.2705 391.726 82.1352 391.752C79.8293 392.163 77.5078 392.771 75.1967 392.73C74.1608 392.709 72.5108 391.513 72.2609 390.557C71.7352 388.534 70.2986 388.009 68.7839 387.728C66.6133 387.328 64.3699 387.198 62.1524 387.157C50.7427 386.943 39.3277 386.803 27.9179 386.611C24.1701 386.548 21.6352 384.479 21.0158 380.773C19.7249 373.016 18.6006 365.228 17.3201 357.467C16.0136 349.549 14.5509 341.657 13.2444 333.74C12.1149 326.893 11.1363 320.025 10.038 313.173C9.08545 307.252 7.99757 301.346 7.08145 295.42C6.42039 291.152 5.93631 286.852 5.57715 282.392C6.98255 283.307 8.10167 285.314 9.82459 282.943C11.662 280.422 13.3433 277.791 15.0662 275.192C15.3473 274.77 15.5295 274.256 15.644 273.762C16.3051 270.877 16.9349 267.986 17.5647 265.096C18.5329 260.651 19.8602 256.247 20.3703 251.751C21.1979 244.493 21.6196 237.178 21.9683 229.874C22.5981 216.794 23.051 203.704 23.5767 190.411C23.5767 189.652 23.5767 189.095 23.7121 188.388C24.1024 186.6 24.3575 184.968 24.6178 183.112C24.7947 181.131 24.9717 179.379 25.258 177.523C25.4662 177.138 25.5599 176.858 25.6536 176.359C25.6536 175.423 25.664 174.7 25.7785 173.884C25.9867 173.499 26.0804 173.219 26.1741 172.719C26.1741 171.784 26.1793 171.061 26.3042 170.219C26.5125 169.657 26.6061 169.216 26.6946 168.54C26.6998 166.731 26.7103 165.161 26.8924 163.539C27.2932 162.826 27.5119 162.161 27.7357 161.293C27.7357 160.534 27.7357 159.977 27.8606 159.302C28.0688 158.74 28.1625 158.298 28.251 157.633C28.5997 154.612 28.9485 151.821 29.3961 148.94C29.4326 148.566 29.3701 148.275 29.3285 147.797C29.5106 146.866 29.6616 146.123 29.9375 145.265C30.1509 144.704 30.2394 144.262 30.3331 143.648C30.3331 143.248 30.3331 143.019 30.4684 142.634C32.691 134.592 34.0808 126.435 37.0113 118.866C43.5855 101.892 50.8676 85.1885 57.9675 68.4226C61.1426 60.926 64.5781 53.5335 67.8938 46.0941C68.0708 45.699 68.1957 45.2675 68.4455 44.9244C69.2784 43.8066 70.4235 43.6871 70.7358 45.0751C71.0898 46.6555 70.9648 48.4075 70.7254 50.0347C70.5276 51.3604 69.8509 52.6133 69.2992 54.0533C66.1709 59.6004 63.0425 64.9499 60.1172 70.4033C58.3735 73.6525 56.9368 77.0681 55.2816 80.5668C54.7298 81.8301 54.2562 82.9375 53.6524 84.1436C53.262 84.8766 53.0121 85.5108 52.6373 86.2698C52.4031 86.9873 52.2886 87.5799 52.0075 88.2142C50.9144 89.4931 49.1447 90.46 50.4772 92.5447C50.1336 93.0802 49.8474 93.4805 49.3945 93.9276C48.6762 95.0089 48.1296 96.0382 47.5102 97.2184C47.3124 97.7798 47.1927 98.1957 46.9168 98.7156C44.6161 104.309 42.4664 109.799 40.2177 115.45C39.0986 119.625 38.0784 123.633 36.8864 127.719C36.3607 128.639 35.8558 129.45 35.6788 130.329C34.5649 135.845 33.5239 141.382 32.4099 147.116C31.3012 154.41 30.2446 161.501 29.1827 168.586C29.3753 168.628 29.5679 168.664 29.7605 168.706C30.7235 165.093 31.6864 161.48 32.6494 157.867C32.9565 157.815 33.2636 157.758 33.5655 157.706C37.5214 162.894 42.7266 165.472 49.332 165.602C50.6073 165.623 51.664 165.634 52.7779 165.758C52.9497 166.003 53.085 166.101 53.2359 166.361C52.9392 167.157 52.6217 167.755 52.3615 168.373C51.4297 170.578 50.243 172.719 49.6704 175.012C48.9208 178.001 48.6554 181.11 48.1973 184.172C47.4842 188.934 46.5889 193.707 48.5825 198.594C49.863 199.524 51.0498 200.725 52.3719 200.902C54.2874 201.157 56.3018 200.6 58.2798 200.522C67.7741 200.143 77.2683 199.8 86.7626 199.457C92.0771 199.264 97.402 198.911 102.711 199.004C106.922 199.082 111.232 199.285 115.287 200.288C117.885 200.928 121.138 201.489 122.252 204.619C115.095 203.917 108.161 202.888 101.197 202.664C90.8383 202.331 80.4643 202.503 70.0956 202.591C62.3086 202.654 54.5164 202.716 46.7451 203.168C41.5138 203.47 36.3138 204.406 31.1139 205.144C28.1625 205.56 26.2834 207.437 26.1325 210.311C25.8358 215.9 25.9191 221.51 25.8566 227.109C25.8566 227.249 26.0388 227.389 26.1429 227.769C26.3199 230.15 26.5229 232.286 26.6686 234.434C27.2776 243.635 35.3613 250.274 43.8874 251.631C44.4287 252.031 44.9232 252.265 45.3917 252.676C44.3715 255.036 42.5861 257.194 42.5288 259.393C42.3675 265.662 42.8776 271.953 43.1847 278.233C43.2888 280.37 44.5485 281.16 46.6722 281.103C52.1429 280.957 57.5823 281.498 63.079 280.198C67.696 279.106 72.7138 280.255 77.2996 278.441C78.6529 277.905 79.8553 277.006 81.1462 276.309C81.7813 275.966 82.6349 275.29 83.0773 275.478C85.0189 276.304 86.4035 275.264 87.8921 274.417C89.5995 273.445 90.8903 271.552 93.3108 272.109C93.5398 272.161 93.9198 271.053 94.3882 270.679C94.966 270.216 95.7051 269.681 96.3818 269.676C98.3598 269.66 100.343 269.889 102.576 270.034C102.212 268.594 101.983 267.705 101.759 266.816C102.024 266.666 102.29 266.52 102.56 266.369C103.242 267.232 104.054 268.028 104.58 268.974C105.449 270.534 106.214 270.419 107.323 269.052C106.303 268.158 105.392 267.362 104.486 266.567C106.136 266.302 107.583 266.068 108.781 265.87C109.447 266.801 110.077 267.679 110.707 268.553C111.633 267.461 112.56 266.364 113.814 264.888C114.694 266.203 115.844 267.549 116.474 269.109C116.625 269.478 115.027 270.549 114.069 271.449C114.694 272.156 115.36 273.538 116.401 273.949C118.67 274.843 120.513 275.779 120.383 278.597C120.284 280.791 120.445 283.026 120.071 285.163C119.399 288.947 116.016 290.013 112.856 291.464C110.868 291.62 109.119 291.776 107.177 291.926C106.615 291.916 106.24 291.905 105.782 291.718C104.174 291.495 102.644 291.448 100.91 291.396C100.156 291.406 99.6038 291.417 98.8699 291.318C98.0891 291.141 97.4905 291.006 96.8971 291.017C88.0275 291.136 79.1578 291.302 70.2882 291.391C63.9014 291.453 57.5146 291.412 50.9613 291.287C48.8271 291.266 46.8596 291.37 44.7202 291.474C44.3298 291.474 44.106 291.479 43.6376 291.474C42.711 291.464 42.0187 291.412 41.3421 291.469C38.1825 291.724 35.4706 291.162 33.503 288.261C32.8628 287.315 31.4001 286.92 30.2029 286.14C28.2458 284.658 26.9757 283 27.1579 280.37C26.7675 279.319 26.3979 278.462 26.0232 277.604C25.7993 277.666 25.5755 277.723 25.3465 277.786C24.8208 280.655 25.2892 283.468 26.1949 286.426C26.1949 286.832 26.1949 287.06 26.1949 287.507C26.3615 288.791 26.5437 289.862 26.7207 291.105C26.7207 291.505 26.7311 291.739 26.7207 292.171C27.0382 293.117 27.3713 293.86 27.7044 294.796C27.7149 295.373 27.7201 295.758 27.6055 296.283C27.7149 297.385 27.9543 298.347 28.1937 299.496C28.2093 300.062 28.2146 300.442 28.1052 300.972C28.225 303.379 28.4019 305.635 28.7455 307.871C28.9225 309.025 29.4065 310.132 29.7553 311.427C29.7657 311.811 29.7761 312.035 29.6616 312.409C29.9791 314.541 30.4216 316.516 30.8536 318.669C30.8536 319.074 30.8536 319.303 30.7287 319.672C30.8536 320.587 31.1034 321.372 31.3585 322.323C31.3689 322.724 31.3741 322.952 31.2492 323.327C31.2804 325.411 31.3897 327.356 31.6135 329.284C32.3891 336.079 33.2011 342.863 34.0027 349.835C34.3411 350.428 34.6742 350.838 35.0177 351.441C35.023 352.024 35.0282 352.413 34.9032 352.944C35.0334 354.03 35.2884 354.976 35.5487 356.115C35.5539 356.697 35.5591 357.087 35.4342 357.623C34.7835 361.023 35.7569 362.447 39.26 362.608C46.313 362.936 53.3765 362.941 60.4295 363.222C63.9118 363.357 67.4149 363.596 70.8451 364.178C73.5674 364.641 76.17 365.582 78.6633 363.56C79.0225 363.268 79.6471 363.227 80.1572 363.201C84.7014 362.967 89.2507 362.806 93.7948 362.535C101.098 362.099 108.395 361.563 115.704 361.137C119.264 360.929 120.326 360.165 120.904 356.666C121.981 350.204 122.986 343.732 123.99 337.259C124.927 331.213 125.807 325.157 126.739 319.105C127.603 313.48 128.394 307.845 129.414 302.251C130.845 294.39 132.891 286.618 133.885 278.711C135.171 268.459 135.728 258.119 136.509 247.81C136.852 243.277 136.915 238.723 137.196 234.184C137.628 227.218 138.336 220.257 138.544 213.285C138.7 207.941 138.502 202.56 138.034 197.231C137.248 188.331 136.165 179.452 135.119 170.578C134.645 166.575 133.963 162.598 133.386 158.605C132.943 155.564 132.667 152.496 132.058 149.492C130.533 141.99 129.123 134.452 127.171 127.054C125.13 119.339 122.647 111.728 120.086 104.164C118.686 100.031 116.849 96.0279 114.98 92.0768C111.144 83.9824 107.177 75.9504 103.221 67.9131C100.452 62.2829 97.7248 56.6267 94.7578 51.1005C92.7226 47.3158 90.3594 43.7027 88.0223 40.0947C87.5434 39.3565 86.5492 38.9302 85.7632 38.4104C84.4827 37.5578 83.5094 37.7553 82.9316 39.2837C82.307 40.9317 81.6511 42.5745 80.8547 44.5916C79.34 40.1675 77.3464 36.2529 76.7322 32.1355C75.7224 25.3356 75.6495 18.4005 75.077 11.5329C74.9208 9.67179 74.4003 7.83664 74.0411 5.9911M90.3854 273.798C90.5 274.037 90.6197 274.277 90.7342 274.521C90.8435 274.427 91.0621 274.266 91.0517 274.245C90.9164 274.022 90.7446 273.824 90.3854 273.804V273.798Z" stroke="#DAA58E" stroke-miterlimit="10"/>
<path d="M69.3824 53.9182C69.8456 52.6341 70.5275 51.3812 70.7253 50.0555C70.97 48.4283 71.0949 46.6712 70.7357 45.0959C70.4234 43.7079 69.2783 43.8274 68.4454 44.9452C68.1904 45.2831 68.0655 45.7198 67.8937 46.1149C64.578 53.5543 61.1426 60.9417 57.9674 68.4434C50.8675 85.2093 43.5854 101.913 37.0113 118.887C34.0807 126.451 32.6909 134.613 30.3382 142.494C30.0155 141.642 29.7708 140.758 29.9114 139.947C31.171 132.83 32.3943 125.702 33.8361 118.622C35.4445 110.735 35.5226 102.88 33.9402 95.0089C33.4873 92.7579 32.7742 90.564 32.1756 88.3442C30.9056 88.9524 30.0675 89.3579 29.2295 89.7582C30.4631 86.6494 31.5042 83.4469 32.9668 80.4473C39.7076 66.6031 46.4899 52.7797 53.418 39.029C55.7604 34.3814 58.4931 29.9209 61.2363 25.4863C61.9233 24.3738 63.1986 23.3601 64.427 22.8974C69.4449 21.005 72.1776 17.4179 72.5419 12.1568C72.6825 10.1657 73.2863 8.20576 73.8589 6.13147C74.395 7.87824 74.9155 9.71339 75.0717 11.5745C75.6442 18.4421 75.7171 25.3772 76.7269 32.1771C77.3411 36.2945 79.3347 40.2091 80.8494 44.6333C81.6406 42.6109 82.3017 40.9733 82.9263 39.3253C83.5041 37.7969 84.4827 37.6046 85.7579 38.452C86.5439 38.977 87.5381 39.3981 88.017 40.1363C90.3541 43.7495 92.7173 47.3626 94.7525 51.1421C97.7195 56.6683 100.447 62.3245 103.216 67.9547C107.172 75.992 111.138 84.024 114.975 92.1184C116.849 96.0695 118.681 100.072 120.081 104.205C122.642 111.77 125.125 119.381 127.165 127.095C129.117 134.488 130.528 142.031 132.053 149.533C132.662 152.538 132.943 155.605 133.38 158.647C133.958 162.639 134.645 166.616 135.114 170.619C136.16 179.499 137.243 188.373 138.029 197.273C138.497 202.602 138.695 207.982 138.539 213.327C138.33 220.298 137.623 227.259 137.191 234.226C136.909 238.764 136.842 243.318 136.503 247.852C135.723 258.161 135.171 268.506 133.88 278.753C132.886 286.66 130.84 294.432 129.409 302.293C128.389 307.886 127.597 313.527 126.733 319.147C125.802 325.198 124.922 331.255 123.985 337.301C122.98 343.773 121.976 350.246 120.898 356.708C120.315 360.201 119.259 360.965 115.698 361.179C108.395 361.605 101.098 362.14 93.7896 362.577C89.2454 362.847 84.6961 363.009 80.1519 363.242C79.6418 363.268 79.0224 363.31 78.658 363.601C76.1648 365.624 73.5622 364.683 70.8398 364.22C67.4096 363.638 63.9065 363.398 60.4242 363.263C53.3712 362.983 46.3077 362.977 39.2547 362.65C35.7568 362.489 34.7834 361.064 35.5902 357.768C36.751 358.174 37.5995 358.974 38.4895 359.021C46.6617 359.463 54.8391 359.791 63.0164 360.092C63.9169 360.123 64.833 359.785 65.9365 359.619C66.5143 359.619 66.8943 359.619 67.3472 359.806C69.4813 360.383 71.5634 361.137 73.6194 361.085C79.7407 360.934 85.8516 360.43 91.9677 360.134C99.9577 359.744 107.953 359.411 115.948 359.089C118.015 359.006 119.082 358.054 119.363 355.98C119.935 351.717 120.648 347.47 121.237 343.207C122.017 337.582 122.73 331.946 123.48 326.144C123.48 325.744 123.48 325.521 123.61 325.141C123.839 323.01 123.933 321.034 124.027 318.882C124.032 318.481 124.037 318.247 124.224 317.956C125.146 313.709 126.01 309.545 126.593 305.339C127.675 297.51 128.618 289.665 129.56 281.82C129.721 280.479 129.58 279.106 129.58 277.744C129.341 277.703 129.102 277.656 128.867 277.614C128.493 278.145 127.806 278.664 127.79 279.2C127.696 283.198 125.016 285.293 122.106 287.268C121.695 287.549 121.294 287.923 121.034 288.339C119.118 291.37 116.817 292.301 113.096 291.495C116.021 290.044 119.404 288.984 120.071 285.199C120.451 283.057 120.284 280.822 120.383 278.633C120.513 275.81 118.67 274.875 116.401 273.986C115.355 273.575 114.694 272.192 114.069 271.485C115.027 270.586 116.625 269.515 116.474 269.146C115.844 267.586 114.699 266.239 113.814 264.924C112.565 266.401 111.633 267.492 110.706 268.589C110.077 267.711 109.452 266.837 108.781 265.907C107.583 266.099 106.136 266.333 104.486 266.603C105.392 267.399 106.303 268.194 107.323 269.088C106.214 270.456 105.449 270.575 104.58 269.01C104.054 268.059 103.242 267.269 102.56 266.406C102.295 266.557 102.029 266.702 101.759 266.853C101.983 267.742 102.212 268.631 102.576 270.071C100.338 269.92 98.3597 269.691 96.3817 269.712C95.7051 269.717 94.9659 270.258 94.3882 270.716C93.9197 271.09 93.5397 272.197 93.3107 272.145C90.8955 271.589 89.5994 273.481 87.8921 274.453C86.4034 275.301 85.0188 276.346 83.0773 275.514C82.6296 275.322 81.776 276.003 81.1461 276.346C79.8553 277.042 78.6476 277.942 77.2995 278.477C72.7085 280.292 67.6907 279.143 63.0789 280.234C57.5874 281.534 52.148 280.993 46.6721 281.139C44.5536 281.196 43.2939 280.406 43.1846 278.269C42.8775 271.989 42.3622 265.699 42.5288 259.429C42.586 257.23 44.3662 255.073 45.3916 252.582C45.4229 252.27 45.4281 252.01 45.5946 252.01C45.9902 252.01 46.2141 252.01 46.4743 252.203C46.9896 253.144 47.4165 254.49 47.963 254.542C51.6066 254.891 55.2815 254.963 59.1386 255.125C59.7215 255.125 60.1119 255.13 60.6429 255.275C63.3079 255.837 65.8324 256.544 68.3674 256.617C80.0322 256.949 91.6867 256.58 103.18 254.48C107.62 253.669 111.867 251.823 116.365 250.425C116.937 250.243 117.348 250.077 117.963 249.91C121.679 249.24 125.193 248.574 129.253 247.81C129.523 245.642 130.054 242.772 130.216 239.882C130.658 231.798 131.22 223.698 131.22 215.609C131.22 206.896 130.944 198.157 130.2 189.48C129.305 179.015 128.055 168.561 126.463 158.179C124.99 148.561 122.991 139.016 121.008 129.482C118.332 116.641 113.398 104.564 107.984 92.6851C104.403 84.8142 100.827 76.9329 96.8554 69.2544C93.2847 62.3505 89.2558 55.6805 85.2478 49.0106C84.5347 47.8201 83.0408 46.9467 81.7187 46.3124C79.1213 45.0647 76.3886 44.0822 73.5309 42.9177C73.5309 43.817 73.5309 45.2415 73.5309 46.8687C73.5674 50.2271 71.4072 52.0518 69.3668 53.9442L69.3824 53.9182Z" fill="#DCAA94" stroke="#DAA58E" stroke-miterlimit="10"/>
<path d="M23.5611 190.624C23.0354 203.709 22.5826 216.799 21.9527 229.879C21.5988 237.184 21.1772 244.493 20.3547 251.756C19.8446 256.253 18.5173 260.656 17.5491 265.101C16.9193 267.991 16.2895 270.882 15.6284 273.767C15.5139 274.266 15.3317 274.776 15.0506 275.197C13.3329 277.801 11.6464 280.432 9.809 282.948C8.08608 285.314 6.96696 283.307 5.59799 282.173C5.05665 276.013 4.54134 269.904 4.34354 263.786C4.15615 258.109 4.30711 252.416 4.52052 246.541C5.94674 247.29 6.71191 247.685 7.51871 245.668C9.08548 241.759 11.204 238.067 12.8645 234.189C15.0038 229.198 17.6324 224.27 18.7567 219.04C20.4328 211.237 20.9325 203.184 22.0568 195.256C22.2807 193.676 23.0458 192.168 23.5611 190.629V190.624Z" fill="#DCAA94" stroke="#DAA58E" stroke-miterlimit="10"/>
<path d="M4.39571 225.461C4.36968 219.903 4.33845 214.346 4.51543 208.591C5.30141 208.851 5.8844 209.303 6.69641 209.937C7.25336 208.944 7.76868 208.164 8.14866 207.327C10.4389 202.29 12.7657 197.268 14.9571 192.189C20.2195 179.998 22.9835 167.209 23.5196 153.983C23.9725 142.749 23.4832 131.546 21.5468 120.426C21.2814 118.897 20.8598 118.221 19.3398 118.351C20.7192 113.802 22.0986 109.253 23.7486 104.486C25.6954 103.498 26.4657 104.252 26.6427 105.88C26.7989 107.335 26.8665 108.801 27.0071 110.257C27.5849 116.256 28.3292 122.25 28.6988 128.26C28.8862 131.338 28.527 134.467 28.2251 137.555C27.4599 145.353 26.5334 153.141 25.7995 160.939C25.5548 163.539 25.685 166.174 25.6433 168.966C25.6433 169.372 25.6433 169.6 25.4559 169.886C25.0447 170.287 24.6908 170.598 24.6127 170.973C23.3843 176.702 22.312 182.467 20.9482 188.16C19.3242 194.944 17.924 201.838 15.5609 208.372C13.3695 214.429 10.0381 220.075 7.18049 225.887C6.97228 226.308 6.54025 226.615 6.21232 226.979C5.52524 226.402 4.95787 225.929 4.3905 225.455L4.39571 225.461Z" fill="#E6C2B2" stroke="#DAA58E" stroke-miterlimit="10"/>
<path d="M19.168 118.445C20.8649 118.221 21.2813 118.897 21.552 120.426C23.4884 131.546 23.9776 142.749 23.5248 153.983C22.9939 167.209 20.2247 179.998 14.9622 192.189C12.7709 197.268 10.4441 202.29 8.15384 207.327C7.77386 208.164 7.25855 208.944 6.70159 209.937C5.88958 209.303 5.3066 208.851 4.56226 208.352C4.71841 203.08 5.03593 197.861 5.55645 192.454C6.93583 193.4 7.72181 192.989 8.23713 191.627C9.82992 187.432 11.4643 183.247 12.9895 179.031C17.6585 166.117 18.2571 152.699 17.7835 139.162C17.747 138.174 17.3202 137.202 17.0391 136.1C16.123 136.297 15.4671 136.438 14.8061 136.578C16.2011 130.568 17.5961 124.559 19.168 118.45V118.445Z" fill="#E2B9A7" stroke="#DAA58E" stroke-miterlimit="10"/>
<path d="M4.354 225.7C4.96301 225.934 5.53038 226.407 6.21746 226.984C6.5506 226.62 6.98263 226.313 7.18563 225.892C10.0433 220.08 13.3694 214.434 15.566 208.378C17.9292 201.843 19.3294 194.949 20.9534 188.165C22.3171 182.467 23.3842 176.702 24.6178 170.978C24.6959 170.604 25.0499 170.286 25.5287 169.995C25.8879 170.177 26.018 170.281 26.1742 170.359C26.1742 171.082 26.169 171.799 26.0232 172.761C25.8046 173.333 25.7318 173.666 25.6537 173.998C25.6537 174.716 25.6433 175.438 25.5027 176.4C25.2841 176.972 25.206 177.305 25.1332 177.637C24.9562 179.395 24.7792 181.147 24.4252 183.185C24.0192 185.16 23.7954 186.86 23.5716 188.56C23.5716 189.111 23.5716 189.667 23.5664 190.426C23.0511 192.173 22.2859 193.681 22.0621 195.261C20.943 203.189 20.4433 211.242 18.762 219.045C17.6377 224.28 15.0038 229.209 12.8697 234.194C11.2092 238.073 9.09073 241.759 7.52397 245.673C6.71716 247.69 5.952 247.3 4.56742 246.307C4.37482 239.487 4.3488 232.718 4.35921 225.705L4.354 225.7Z" fill="#E1B7A5" stroke="#DAA58E" stroke-miterlimit="10"/>
<path d="M25.6485 168.794C25.6901 166.174 25.56 163.539 25.8099 160.939C26.549 153.136 27.4755 145.353 28.2355 137.555C28.5374 134.467 28.9017 131.338 28.7091 128.26C28.3396 122.245 27.5952 116.256 27.0175 110.257C26.8769 108.801 26.8092 107.335 26.6531 105.879C26.4761 104.252 25.7057 103.498 23.8423 104.304C25.4038 99.537 27.1528 94.7333 29.0631 89.8413C30.0677 89.3527 30.9057 88.9524 32.1758 88.3441C32.7692 90.564 33.4823 92.763 33.9404 95.0089C35.528 102.88 35.4499 110.735 33.8363 118.621C32.3892 125.702 31.1712 132.83 29.9115 139.947C29.7658 140.758 30.0104 141.641 30.2082 142.65C30.3384 143.035 30.3384 143.269 30.177 143.705C29.9532 144.412 29.8855 144.911 29.8231 145.405C29.6669 146.149 29.516 146.887 29.2349 147.901C29.1724 148.462 29.2349 148.753 29.3025 149.044C28.9538 151.841 28.605 154.633 28.1001 157.69C27.8763 158.449 27.8086 158.948 27.7462 159.442C27.7462 159.993 27.7462 160.549 27.564 161.36C27.1632 162.28 26.9446 162.941 26.7208 163.606C26.7156 165.176 26.7051 166.751 26.5282 168.56C26.1222 168.8 25.8931 168.8 25.6641 168.8L25.6485 168.794Z" fill="#E1B7A5" stroke="#DAA58E" stroke-miterlimit="10"/>
<path d="M14.7695 136.781C15.467 136.427 16.1228 136.287 17.0389 136.089C17.3148 137.191 17.7468 138.164 17.7833 139.151C18.2569 152.684 17.6635 166.107 12.9893 179.02C11.4642 183.242 9.82973 187.421 8.23694 191.617C7.71642 192.984 6.93564 193.395 5.5979 192.225C5.94144 187.993 6.31101 183.788 6.96687 179.618C7.87778 173.806 8.97607 168.025 10.0379 162.239C11.5839 153.822 13.1663 145.405 14.7695 136.781Z" fill="#EACCBF" stroke="#DAA58E" stroke-miterlimit="10"/>
<path d="M73.5518 46.6348V42.8917C76.4095 44.0562 79.1422 45.0336 81.7396 46.2865C83.0617 46.9207 84.5556 47.7993 85.2687 48.9846C89.2767 55.6494 93.3108 62.3246 96.8763 69.2285C100.848 76.907 104.419 84.7883 108.005 92.6591C113.413 104.543 118.353 116.62 121.028 129.456C123.012 138.99 125.016 148.53 126.483 158.153C128.071 168.535 129.32 178.989 130.221 189.454C130.965 198.131 131.236 206.87 131.241 215.583C131.241 223.672 130.679 231.772 130.236 239.856C130.08 242.746 129.549 245.621 129.273 247.784C125.213 248.553 121.7 249.214 118.025 249.713C118.088 249.292 118.259 248.943 118.54 248.798C124.516 245.673 127.509 240.501 128.123 234.044C128.628 228.72 128.597 223.345 128.649 217.99C128.659 217.06 127.899 216.119 127.499 215.183C126.957 215.983 126.249 216.722 125.901 217.595C124.558 220.933 124.006 224.858 121.872 227.535C119.545 230.457 117.635 233.3 116.635 236.861C116.219 238.348 115.563 239.794 114.829 241.161C113.398 243.812 111.18 245.091 108.068 244.909C107.229 244.857 106.084 245.257 105.533 245.866C103.81 247.758 102.201 247.176 100.171 246.365C94.9088 244.264 89.6411 241.956 84.1548 240.698C79.8918 239.721 75.2956 240.095 70.8451 240.038C62.9853 239.944 55.8438 242.767 48.7699 245.762C44.5953 247.529 40.7643 248.631 37.7505 243.537C34.9865 238.873 32.4204 234.085 29.9375 229.261C29.0318 227.493 28.0896 226.62 26.1429 227.545C26.044 227.405 25.8618 227.259 25.8618 227.119C25.9191 221.52 25.841 215.911 26.1377 210.322C26.2886 207.447 28.1677 205.57 31.1191 205.154C36.3191 204.421 41.5191 203.486 46.7503 203.179C54.5164 202.727 62.3138 202.664 70.1008 202.602C80.4695 202.519 90.8435 202.347 101.202 202.675C108.166 202.898 115.1 203.928 122.392 204.754C124.027 205.326 125.312 205.742 126.77 206.205C126.91 205.513 127.139 205.019 127.082 204.562C126.239 198.079 125.349 191.601 124.479 185.124C123.641 178.89 121.997 172.922 118.244 167.765C117.562 166.829 116.292 165.878 115.214 165.774C113.007 165.561 110.748 166.039 108.515 166.024C104.663 165.992 100.811 165.805 97.1314 165.545C103.591 164.469 109.879 163.528 116.172 162.587C118.759 162.203 120.789 162.78 121.658 165.582C122.777 169.19 123.923 172.792 125.115 176.379C125.411 177.279 125.932 178.1 126.353 178.958C127.03 178.074 127.186 177.341 127.113 176.634C126.629 171.846 126.161 167.053 125.562 162.281C125.156 159.068 124.547 155.876 124.032 152.502C124.032 152.101 124.032 151.873 124.032 151.441C123.86 150.505 123.683 149.767 123.506 148.842C123.506 148.26 123.506 147.875 123.506 147.282C123.168 146.341 122.824 145.608 122.481 144.698C122.481 144.293 122.481 144.064 122.59 143.721C122.455 143.16 122.21 142.718 121.96 142.099C121.96 141.699 121.955 141.465 122.049 141.137C121.913 140.758 121.679 140.472 121.44 139.978C121.44 139.219 121.434 138.668 121.528 138.018C121.388 137.639 121.153 137.353 120.919 136.895C120.919 136.495 120.914 136.266 121.013 135.949C121.044 135.575 120.971 135.284 120.904 134.8C120.904 134.223 120.893 133.833 120.888 133.24C120.518 131.291 120.326 129.487 119.727 127.829C119.123 126.149 118.119 124.621 117.286 122.853C117.286 122.453 117.281 122.224 117.385 121.866C116.25 117.899 115.027 114.052 113.726 110.236C113.559 109.753 112.981 109.404 112.523 108.848C112.32 108.281 112.19 107.86 112.185 107.314C111.362 105.188 110.415 103.197 109.468 101.071C109.463 100.946 109.457 100.691 109.457 100.488C108.942 99.3811 108.421 98.4661 107.88 97.3796C107.693 96.631 107.531 96.0591 107.37 95.2897C105.699 91.2399 104.08 87.3616 102.342 83.5458C101.754 82.2565 100.848 81.1076 100.093 79.8911C100.093 79.8911 100.093 79.8911 100.062 79.7351C99.708 79.3348 99.3852 79.0905 99.0625 78.6746C99.0625 78.2743 99.0521 78.0455 99.0313 77.6452C98.6773 76.8914 98.339 76.3143 97.985 75.5813C97.8081 75.1862 97.6467 74.9419 97.4853 74.5052C96.7931 73.3979 96.1008 72.4881 95.4137 71.4431C95.4137 71.3132 95.4137 71.0584 95.4137 70.8557C95.3252 70.1487 95.372 69.5664 95.1326 69.1453C92.3374 64.2741 89.1102 59.6056 86.7678 54.5265C84.0559 48.6415 79.0641 47.4198 73.5675 46.6244L73.5518 46.6348Z" fill="#E1B7A5" stroke="#DAA58E" stroke-miterlimit="10"/>
<path d="M124.037 318.008C124.037 318.237 124.032 318.466 123.897 319.022C123.491 321.32 123.215 323.295 122.788 325.313C122.408 325.677 122.184 326.004 121.955 326.503C121.955 326.903 121.955 327.137 121.814 327.486C121.195 328.796 120.825 330.049 120.196 331.156C119.722 331.998 119.035 333.028 118.233 333.261C117.702 333.417 116.578 332.466 116.11 331.754C114.735 329.664 113.538 327.454 112.315 325.266C110.915 322.765 108.479 321.788 105.98 322.999C104.601 323.67 103.263 324.564 102.144 325.609C94.4872 332.778 85.7685 337.025 74.9625 337.041C67.3004 337.051 60.4816 334.873 54.1313 331.021C46.7971 326.565 45.3449 326.716 40.1553 333.709C38.1045 336.474 36.7147 336.334 35.0802 333.225C34.2266 331.598 33.3209 329.997 32.436 328.161C32.082 326.363 31.7281 324.782 31.3793 323.202C31.3741 322.973 31.3689 322.744 31.3689 322.147C31.2024 321.039 31.0254 320.301 30.8536 319.563C30.8536 319.334 30.8536 319.1 30.9369 318.549C30.609 316.246 30.1978 314.265 29.7813 312.279C29.7709 312.061 29.7657 311.838 29.7709 311.214C29.266 307.486 28.7455 304.164 28.2198 300.842C28.2094 300.463 28.199 300.088 28.2042 299.309C28.0532 297.993 27.8866 297.078 27.7201 296.169C27.7149 295.784 27.7045 295.399 27.7097 294.63C27.7253 293.845 27.7253 293.455 27.9283 293.06C28.9537 293.554 29.7449 294.146 30.6246 294.521C32.3891 295.269 34.3567 296.709 35.9547 296.397C38.3699 295.924 40.5353 294.203 42.9765 293.013C43.3617 293.013 43.5855 293.008 43.9707 292.992C44.3871 292.67 44.6422 292.368 45.1367 292.051C46.9585 292.046 48.5409 292.051 50.1128 292.254C49.7537 294.141 49.1551 295.815 49.1082 297.505C48.8532 307.372 52.9028 315.004 61.3196 320.254C74.7959 328.655 90.7498 323.301 97.5114 310.465C100.65 304.507 101.473 298.035 99.0521 291.464C99.6039 291.453 100.15 291.443 101.056 291.583C102.894 291.802 104.377 291.864 105.861 291.932C106.235 291.942 106.61 291.952 107.313 292.103C110.847 293.236 114.053 294.229 117.26 295.217C119.779 295.992 122.632 294.848 123.761 292.457C124.495 290.902 124.932 289.213 125.593 287.622C125.875 286.956 126.4 286.395 126.817 285.781C127.035 285.875 127.249 285.974 127.467 286.067C126.926 291.51 126.411 296.959 125.828 302.397C125.265 307.606 124.625 312.81 124.021 318.014L124.037 318.008Z" fill="#EACCBF"/>
<path d="M121.424 138.122C121.424 138.673 121.429 139.229 121.45 140.139C121.627 140.747 121.783 140.992 121.945 141.241C121.945 141.47 121.945 141.704 121.955 142.276C122.127 143.03 122.299 143.435 122.465 143.841C122.465 144.069 122.465 144.303 122.465 144.906C122.809 146.019 123.147 146.752 123.491 147.49C123.491 147.875 123.491 148.265 123.376 148.982C123.506 150.089 123.761 150.869 124.016 151.644C124.016 151.873 124.016 152.101 123.886 152.663C123.756 155.215 123.756 157.435 123.756 159.229C121.955 159.4 120.643 159.338 119.457 159.681C117.286 160.305 115.188 161.173 113.059 161.937C115.152 159.135 113.616 156.869 112.492 154.592C110.852 151.275 109.359 147.864 107.448 144.709C106.298 142.801 104.476 141.298 102.92 139.578C100.286 144.283 98.3079 148.842 95.4086 152.72C92.5197 156.588 88.7147 159.77 85.3157 163.253C85.4927 163.539 85.6645 163.83 85.8414 164.116C87.7986 164.116 89.7714 163.975 91.7077 164.188C92.4572 164.272 93.1235 165.145 93.6336 165.748C89.7557 165.784 86.0757 165.738 82.1666 165.68C80.8757 165.67 79.8086 165.67 78.6374 165.556C78.0805 165.525 77.6328 165.602 76.9458 165.68C75.1343 165.68 73.5572 165.68 71.9644 165.467C71.2877 164.875 70.6527 164.22 69.9656 164.168C67.9824 164.017 65.9784 164.183 63.9848 164.09C62.0849 164.001 60.1954 163.752 58.2955 163.57C58.2903 163.279 58.2799 162.988 58.2747 162.691C60.591 162.208 62.9334 161.833 65.2184 161.225C76.3107 158.272 83.9415 151.077 88.189 140.763C93.035 129.014 90.7135 117.722 83.9051 107.252C83.4106 106.493 82.2238 105.614 81.4795 105.713C79.8034 105.937 79.642 104.928 79.1892 103.883C77.7734 100.613 76.2951 97.3744 74.5618 93.5013C73.6248 96.449 72.589 96.1475 70.9598 94.8374C69.3878 93.5741 67.4046 92.8255 65.614 91.8222C63.8235 90.8188 62.1161 89.6595 60.2683 88.7809C58.155 87.7723 55.9324 87.0029 53.7722 85.9632C53.7878 85.2198 53.7826 84.6375 53.7722 84.0501C54.2459 82.9479 54.7144 81.8406 55.4379 80.5305C57.0931 79.3972 57.2597 76.8082 59.753 77.3437C61.9131 77.8116 63.8599 78.3419 65.7233 79.9379C68.378 82.2149 71.5428 83.8837 73.0835 87.2629C73.1199 87.3409 73.3906 87.3097 74.1766 87.398V77.4477C74.4681 77.4321 74.7596 77.4165 75.0459 77.4009C75.2437 77.9 75.4987 78.3782 75.6288 78.8929C76.4981 82.3137 77.2893 85.7604 78.2418 89.1604C78.4657 89.961 79.2204 90.6161 79.7409 91.5674C79.7566 92.8515 79.767 93.9068 79.6473 95.1077C79.6473 96.7505 79.7722 98.2478 79.9023 99.7502C80.199 99.7294 80.4905 99.7138 80.7872 99.693C80.7872 98.1022 80.7872 96.5166 80.7872 94.6867C80.7872 90.6264 80.7872 86.8106 80.9694 83.0415C81.4847 83.4574 81.9063 83.7849 82.1457 84.2112C83.9207 87.3408 85.5187 90.5797 87.4498 93.6053C89.1207 96.2255 91.1507 98.6117 93.0194 101.102C93.3786 100.956 93.7429 100.811 94.1021 100.67C92.3375 84.076 87.1636 68.2043 82.9109 52.0779C83.6605 52.5354 84.0873 53.1124 84.4256 53.7363C85.3938 55.5246 86.2214 57.4014 87.3041 59.117C88.8604 61.5915 90.599 63.9466 92.249 66.364C93.3109 67.9184 94.3467 69.4884 95.393 71.0532C95.393 71.0532 95.393 71.3132 95.4242 71.6199C96.1269 72.852 96.7984 73.7722 97.4751 74.6923C97.6364 74.9367 97.7926 75.1862 97.8654 75.6957C98.1986 76.5795 98.615 77.1981 99.0366 77.8168C99.0366 78.0455 99.0418 78.2743 99.0783 78.8357C99.4322 79.4076 99.7549 79.6519 100.083 79.8963C100.083 79.8963 100.083 79.8963 100.083 80.099C101.551 83.8265 102.935 87.3876 104.523 90.8604C105.272 92.498 106.407 93.9588 107.37 95.4977C107.531 96.0695 107.693 96.6414 107.875 97.5252C107.891 97.9255 107.891 98.0138 107.708 98.071C105.517 95.8356 103.57 93.5585 101.441 91.4686C100.739 90.7824 99.5675 90.5693 98.6098 90.143C98.3287 91.2555 97.6104 92.472 97.8446 93.4702C98.9273 98.071 100.218 102.62 101.53 107.164C104.778 118.403 110.618 128.463 115.99 138.735C116.073 138.897 116.417 138.923 117.218 139.24C117.395 137.379 117.89 135.694 117.64 134.129C116.901 129.549 115.803 125.026 114.97 120.462C114.689 118.934 114.767 117.338 114.808 115.908C115.719 118.029 116.5 120.02 117.286 122.011C117.286 122.24 117.291 122.469 117.317 123.061C118.114 126.108 118.842 128.801 119.68 131.462C119.909 132.185 120.482 132.799 120.893 133.464C120.893 133.849 120.904 134.239 120.81 134.899C120.779 135.465 120.852 135.757 120.919 136.048C120.919 136.276 120.919 136.505 120.945 137.061C121.122 137.633 121.284 137.883 121.445 138.127L121.424 138.122Z" fill="#E2B9A7" stroke="#DAA58E" stroke-miterlimit="10"/>
<path d="M37.0531 127.667C38.0733 123.659 39.0935 119.651 40.3792 115.424C41.1132 114.53 41.7066 113.912 42.0189 113.173C43.8875 108.687 45.6937 104.174 47.7446 99.667C50.0765 100.291 52.2263 100.811 54.2771 101.585C56.1978 102.313 57.9312 103.68 59.8935 104.133C70.4444 106.55 77.0446 112.622 79.3974 123.43C82.0677 135.689 73.6196 148.852 61.2417 151.134C53.2152 152.616 45.4335 150.807 37.6361 149.408C35.0231 148.941 34.2059 147.053 34.6275 144.256C35.4707 138.73 36.2463 133.194 37.0479 127.662L37.0531 127.667Z" fill="#EACCBF"/>
<path d="M82.3955 165.691C86.0755 165.738 89.7556 165.79 93.8573 165.758C95.169 165.68 96.0643 165.686 96.9544 165.691C100.806 165.816 104.658 166.003 108.505 166.034C110.743 166.05 113.002 165.576 115.204 165.784C116.281 165.888 117.557 166.84 118.233 167.776C121.991 172.933 123.636 178.901 124.469 185.134C125.338 191.612 126.228 198.089 127.072 204.572C127.129 205.03 126.9 205.524 126.759 206.215C125.307 205.747 124.016 205.336 122.59 204.796C121.127 201.505 117.874 200.949 115.277 200.304C111.222 199.306 106.912 199.098 102.701 199.02C97.3864 198.926 92.0667 199.28 86.7522 199.472C77.2579 199.81 67.7637 200.153 58.2694 200.538C56.2914 200.616 54.277 201.177 52.3615 200.917C51.0341 200.741 49.8474 199.54 48.8115 198.609C56.0207 198.999 62.6365 196.816 68.8724 194.372C73.2239 192.667 75.8473 187.884 77.4453 183.413C79.5014 177.648 80.7714 171.607 82.3798 165.686L82.3955 165.691Z" fill="#DCAA94" stroke="#DAA58E" stroke-miterlimit="10"/>
<path d="M36.8813 127.745C36.2515 133.199 35.4707 138.735 34.6326 144.262C34.2058 147.053 35.0282 148.941 37.6413 149.414C45.4386 150.812 53.2204 152.621 61.2468 151.14C73.6196 148.857 82.0728 135.694 79.4026 123.436C77.0498 112.627 70.4496 106.555 59.8987 104.138C57.9363 103.691 56.203 102.318 54.2823 101.591C52.2314 100.816 50.0765 100.296 47.7289 99.5214C47.3437 99.1315 47.2032 98.882 47.0627 98.6324C47.1876 98.2165 47.3125 97.8058 47.6717 97.1872C48.4577 95.9551 49.0094 94.9309 49.5612 93.9068C49.8422 93.5065 50.1285 93.1062 50.571 92.4044C51.2164 90.798 51.6953 89.4983 52.1742 88.1934C52.2835 87.6059 52.398 87.0133 52.7988 86.2907C53.3141 86.1503 53.5379 86.1451 53.7618 86.1399C55.9375 87.0133 58.1601 87.7879 60.2735 88.7964C62.1213 89.675 63.8338 90.8343 65.6192 91.8377C67.4046 92.8411 69.3878 93.5897 70.9649 94.853C72.5942 96.1578 73.63 96.4594 74.5669 93.5169C76.3003 97.3899 77.7785 100.629 79.1944 103.899C79.6472 104.944 79.8086 105.952 81.4846 105.729C82.229 105.63 83.4158 106.509 83.9103 107.268C90.7135 117.738 93.035 129.029 88.1941 140.779C83.9415 151.093 76.3159 158.288 65.2236 161.241C62.9437 161.849 60.5962 162.223 58.2799 162.707C58.2851 162.998 58.2955 163.289 58.3007 163.585C60.1954 163.767 62.0901 164.017 63.99 164.105C65.9784 164.199 67.9876 164.032 69.9707 164.183C70.6526 164.235 71.2929 164.89 71.7405 165.483C68.2218 165.556 64.9113 165.41 61.3613 165.244C59.3521 165.223 57.5876 165.228 55.6304 165.223C55.0578 165.213 54.6779 165.213 54.1261 165.202C53.5431 165.353 53.1319 165.514 52.7259 165.68C51.6745 165.67 50.623 165.654 49.2853 165.457C48.1818 164.885 47.375 164.48 46.5473 164.116C43.8875 162.946 41.0142 162.109 38.6094 160.554C34.742 158.054 34.2266 153.817 33.9872 149.611C33.9247 148.483 34.4036 147.022 32.4673 146.944C33.5291 141.418 34.5702 135.881 35.6841 130.365C35.8611 129.487 36.366 128.676 36.8917 127.756L36.8813 127.745Z" fill="#EACCBF"/>
<path d="M98.8804 291.344C101.483 298.024 100.661 304.497 97.5219 310.455C90.7603 323.29 74.8064 328.645 61.3301 320.244C52.9133 314.998 48.8637 307.361 49.1188 297.494C49.1604 295.805 49.7642 294.131 50.2743 292.212C50.6699 291.796 50.9041 291.614 51.1332 291.432C57.5199 291.432 63.9067 291.474 70.2935 291.412C79.1632 291.323 88.0328 291.157 96.9025 291.037C97.4959 291.027 98.0945 291.162 98.8752 291.339L98.8804 291.344Z" fill="#EACCBF"/>
<path d="M26.1533 227.784C28.1001 226.62 29.037 227.493 29.9479 229.261C32.4256 234.085 34.997 238.873 37.7609 243.537C40.7799 248.631 44.611 247.534 48.7803 245.762C55.849 242.767 62.9905 239.939 70.8556 240.038C75.306 240.09 79.9022 239.716 84.1652 240.698C89.6515 241.956 94.9192 244.264 100.182 246.365C102.212 247.176 103.82 247.758 105.543 245.866C106.095 245.263 107.235 244.862 108.078 244.909C111.191 245.091 113.408 243.812 114.839 241.161C115.573 239.799 116.229 238.348 116.646 236.861C117.645 233.3 119.555 230.457 121.882 227.535C124.016 224.852 124.568 220.933 125.911 217.595C126.265 216.716 126.968 215.983 127.509 215.183C127.91 216.119 128.67 217.059 128.659 217.99C128.607 223.345 128.633 228.72 128.134 234.044C127.519 240.501 124.526 245.678 118.551 248.798C118.27 248.943 118.098 249.292 117.832 249.718C117.38 250.056 116.968 250.217 116.266 250.29C115.131 250.321 114.257 250.326 113.455 250.581C104.986 253.243 96.2725 254.074 87.4445 254.064C79.668 254.054 71.8914 254.017 64.12 254.111C62.9228 254.126 61.7309 254.766 60.5337 255.114C60.1433 255.114 59.7529 255.114 59.0033 254.974C54.4592 254.428 50.217 254.262 46.464 251.995C46.2402 251.995 46.0112 251.995 45.4646 251.922C44.7151 251.725 44.2882 251.6 43.8562 251.48C35.3769 250.295 27.2933 243.656 26.6843 234.454C26.5437 232.307 26.3407 230.171 26.1585 227.79L26.1533 227.784Z" fill="#E6C2B2" stroke="#DAA58E" stroke-miterlimit="10"/>
<path d="M95.3981 70.8609C94.3519 69.4988 93.316 67.9288 92.2542 66.3744C90.6041 63.957 88.8656 61.5967 87.3092 59.1273C86.2265 57.4118 85.3989 55.535 84.4308 53.7467C84.0924 53.1228 83.6656 52.5458 82.916 52.0883C87.1687 68.2147 92.3427 84.0864 94.1072 100.681C93.7481 100.826 93.3837 100.972 93.0245 101.112C91.1559 98.6221 89.1206 96.2359 87.455 93.6157C85.5238 90.5849 83.9258 87.3512 82.1509 84.2216C81.9114 83.7953 81.4898 83.4678 80.8912 82.8543C80.6101 76.8394 80.5893 71.0636 80.5789 65.2878C80.5685 59.9955 80.5789 54.698 80.5789 49.4057C79.1162 63.3695 78.8039 77.3541 79.7409 91.3595C79.2308 90.6368 78.476 89.9818 78.2522 89.1812C77.2996 85.7812 76.5136 82.3345 75.6392 78.9137C75.509 78.399 75.254 77.9155 75.0562 77.4217C74.7647 77.4373 74.4732 77.4529 74.1869 77.4685V87.4188C73.4009 87.3252 73.1251 87.3616 73.0938 87.2837C71.5531 83.9045 68.3831 82.2357 65.7337 79.9586C63.8754 78.3626 61.9287 77.8272 59.7633 77.3645C57.2752 76.829 57.1035 79.418 55.5315 80.3901C56.9369 77.0942 58.3683 73.6838 60.1121 70.4346C63.0426 64.9811 66.1657 59.6316 69.294 54.0846C71.423 52.0363 73.5831 50.2115 73.5467 46.8531C79.0434 47.4406 84.0352 48.6675 86.7471 54.5473C89.0894 59.6264 92.3114 64.2949 95.1118 69.1661C95.3513 69.5872 95.3096 70.1694 95.3929 70.8765L95.3981 70.8609Z" fill="#E6C2B2" stroke="#DAA58E" stroke-miterlimit="10"/>
<path d="M61.5955 165.259C64.906 165.4 68.2165 165.54 71.7508 165.68C73.5518 165.68 75.129 165.68 77.0497 165.795C77.8409 165.826 78.2937 165.748 78.7414 165.67C79.8085 165.67 80.8703 165.675 82.1612 165.686C80.7818 171.612 79.5066 177.653 77.4505 183.418C75.8577 187.889 73.2343 192.672 68.8775 194.377C62.6417 196.821 56.0259 199.004 48.7855 198.427C46.5837 193.728 47.479 188.955 48.1921 184.193C48.6502 181.131 48.9156 178.022 49.6652 175.033C50.2377 172.74 51.4245 170.598 52.3563 168.394C52.6165 167.776 52.934 167.183 53.3869 166.351C53.7929 165.821 54.0427 165.514 54.2874 165.202C54.6674 165.202 55.0473 165.202 55.6459 165.41C57.525 167.365 60.5701 167.172 61.5955 165.254V165.259Z" fill="#E1B7A5" stroke="#DAA58E" stroke-miterlimit="10"/>
<path d="M31.2493 323.347C31.7334 324.777 32.0821 326.358 32.4413 328.369C33.3418 334.01 34.2371 339.214 35.2208 344.896C37.8703 342.702 39.3381 344.038 40.5926 345.702C42.7371 348.551 45.6989 349.991 49.0302 350.833C56.2967 352.668 63.6985 353.017 71.1575 352.861C72.615 352.829 74.0828 353.261 76.2274 353.583C74.2442 355.938 73.2448 358.127 70.4132 357.82C70.3819 354.951 68.4404 354.935 66.5769 354.914C59.222 354.831 51.992 354.145 45.0378 351.426C39.9992 349.455 39.9576 349.627 39.3329 354.691C39.1091 356.51 39.6661 357.446 41.644 357.539C47.2396 357.81 52.8352 358.189 58.5974 358.662C61.0907 359.068 63.4174 359.338 65.7441 359.603C64.8332 359.77 63.9171 360.108 63.0166 360.076C54.8392 359.775 46.6619 359.447 38.4897 359.006C37.5996 358.959 36.7512 358.158 35.7205 357.602C35.554 357.113 35.554 356.723 35.5488 355.928C35.377 354.623 35.2052 353.718 35.0334 352.819C35.0334 352.429 35.0282 352.039 35.0178 351.28C34.6743 350.495 34.3412 350.085 34.008 349.669C33.2064 342.879 32.3944 336.09 31.6188 329.3C31.4002 327.371 31.2857 325.427 31.2545 323.342L31.2493 323.347Z" fill="#E6C2B2" stroke="#DAA58E" stroke-miterlimit="10"/>
<path d="M124.225 317.946C124.641 312.804 125.281 307.6 125.843 302.391C126.432 296.953 126.942 291.505 127.483 286.062C127.264 285.969 127.051 285.87 126.832 285.776C126.416 286.384 125.89 286.946 125.609 287.617C124.943 289.207 124.511 290.897 123.777 292.451C122.647 294.843 119.795 295.987 117.276 295.212C114.069 294.229 110.863 293.231 107.516 292.098C109.129 291.802 110.878 291.651 112.867 291.495C116.823 292.301 119.118 291.37 121.039 288.334C121.304 287.918 121.7 287.544 122.111 287.263C125.021 285.288 127.702 283.192 127.795 279.195C127.806 278.659 128.498 278.134 128.873 277.609C129.112 277.651 129.352 277.697 129.586 277.739C129.586 279.101 129.726 280.474 129.565 281.815C128.623 289.66 127.681 297.51 126.598 305.334C126.015 309.54 125.156 313.704 124.23 317.951L124.225 317.946Z" fill="#E6C2B2" stroke="#DAA58E" stroke-miterlimit="10"/>
<path d="M32.4101 147.142C34.3933 147.012 33.9144 148.478 33.9768 149.601C34.2215 153.807 34.7368 158.043 38.5991 160.544C41.0039 162.104 43.8823 162.935 46.537 164.105C47.3646 164.469 48.1714 164.875 49.0459 165.441C42.7216 165.498 37.5216 162.915 33.5656 157.732C33.2585 157.784 32.9514 157.841 32.6495 157.893C31.6866 161.506 30.7236 165.119 29.7606 168.732C29.568 168.69 29.3755 168.654 29.1829 168.612C30.2395 161.527 31.3014 154.436 32.4101 147.142Z" fill="#E6C2B2" stroke="#DAA58E" stroke-miterlimit="10"/>
<path d="M42.8204 293.002C40.5458 294.193 38.3804 295.919 35.9652 296.392C34.3672 296.704 32.3944 295.264 30.6351 294.515C29.7554 294.141 28.9694 293.548 27.9075 292.898C27.361 292.493 27.0539 292.243 26.7416 291.994C26.7416 291.765 26.7312 291.531 26.8509 290.98C26.7208 289.545 26.4657 288.433 26.2159 287.32C26.2159 287.091 26.2106 286.858 26.3304 286.296C26.4501 284.861 26.3512 283.749 26.4709 282.657C26.549 281.95 26.9394 281.274 27.1892 280.588C26.9914 283.026 28.2615 284.684 30.2291 286.369C31.8219 292.867 33.7426 294.125 39.9159 293.07C40.8633 292.909 41.8575 293.018 42.8308 293.002H42.8204Z" fill="#E2B9A7" stroke="#DAA58E" stroke-miterlimit="10"/>
<path d="M42.9868 293.002C41.8469 293.018 40.8527 292.904 39.9054 293.065C33.732 294.12 31.8165 292.862 30.333 286.494C31.4053 286.941 32.8679 287.336 33.5082 288.282C35.4757 291.183 38.1877 291.739 41.3472 291.49C42.0291 291.432 42.7162 291.49 43.6375 291.682C43.8509 292.249 43.8353 292.618 43.8145 292.987C43.5959 292.987 43.372 292.992 42.9868 292.997V293.002Z" fill="#E1B7A5" stroke="#DAA58E" stroke-miterlimit="10"/>
<path d="M46.9117 98.7416C47.2032 98.8819 47.3438 99.1315 47.5051 99.5266C45.6989 104.174 43.8927 108.687 42.0241 113.173C41.717 113.911 41.1184 114.53 40.4885 115.258C42.4665 109.825 44.6162 104.335 46.9169 98.7416H46.9117Z" fill="#E2B9A7" stroke="#DAA58E" stroke-miterlimit="10"/>
<path d="M28.1052 300.998C28.7507 304.164 29.2712 307.491 29.7761 311.047C29.4117 310.158 28.9276 309.051 28.7455 307.897C28.4019 305.661 28.2249 303.4 28.1052 300.998Z" fill="#E6C2B2" stroke="#DAA58E" stroke-miterlimit="10"/>
<path d="M27.1632 280.396C26.929 281.274 26.5386 281.95 26.4605 282.657C26.3408 283.749 26.4397 284.861 26.3252 286.125C25.2998 283.499 24.8313 280.687 25.3518 277.817C25.5756 277.755 25.7995 277.697 26.0285 277.635C26.4033 278.493 26.7728 279.351 27.1632 280.401V280.396Z" fill="#E6C2B2" stroke="#DAA58E" stroke-miterlimit="10"/>
<path d="M29.6616 312.435C30.1978 314.265 30.609 316.246 30.9421 318.372C30.4216 316.542 29.9791 314.562 29.6616 312.435Z" fill="#E6C2B2" stroke="#DAA58E" stroke-miterlimit="10"/>
<path d="M50.9718 291.313C50.9041 291.62 50.6699 291.802 50.2847 292.015C48.5461 292.041 46.9638 292.036 45.1367 291.906C44.8973 291.687 44.8973 291.594 44.8921 291.5C46.8597 291.396 48.8324 291.292 50.9666 291.313H50.9718Z" fill="#E1B7A5" stroke="#DAA58E" stroke-miterlimit="10"/>
<path d="M23.6965 188.399C23.7902 186.855 24.0141 185.155 24.4201 183.403C24.342 184.978 24.0869 186.61 23.6965 188.399Z" fill="#DCAA94" stroke="#DAA58E" stroke-miterlimit="10"/>
<path d="M105.788 291.744C104.387 291.854 102.909 291.791 101.275 291.573C102.649 291.469 104.179 291.521 105.788 291.744Z" fill="#E6C2B2" stroke="#DAA58E" stroke-miterlimit="10"/>
<path d="M51.9971 88.235C51.69 89.4931 51.2111 90.798 50.6282 92.264C49.1343 90.4756 50.904 89.5087 51.9971 88.235Z" fill="#E6C2B2" stroke="#DAA58E" stroke-miterlimit="10"/>
<path d="M26.1951 287.533C26.4605 288.428 26.7104 289.54 26.8457 290.803C26.5438 289.888 26.3668 288.818 26.1951 287.533Z" fill="#E6C2B2" stroke="#DAA58E" stroke-miterlimit="10"/>
<path d="M34.8979 352.97C35.1999 353.729 35.3716 354.628 35.5382 355.741C35.2779 355.002 35.0229 354.056 34.8979 352.97Z" fill="#DCAA94" stroke="#DAA58E" stroke-miterlimit="10"/>
<path d="M27.6055 296.309C27.897 297.078 28.0635 297.993 28.2093 299.121C27.9542 298.373 27.7148 297.411 27.6055 296.309Z" fill="#E6C2B2" stroke="#DAA58E" stroke-miterlimit="10"/>
<path d="M49.3892 93.9536C49.0092 94.931 48.4575 95.9603 47.7444 97.0417C48.1296 96.0643 48.6761 95.0349 49.3892 93.9536Z" fill="#E6C2B2" stroke="#DAA58E" stroke-miterlimit="10"/>
<path d="M30.7339 319.693C31.0306 320.296 31.2076 321.034 31.3689 321.97C31.1087 321.388 30.8588 320.608 30.7339 319.693Z" fill="#E6C2B2" stroke="#DAA58E" stroke-miterlimit="10"/>
<path d="M26.7258 292.197C27.0486 292.243 27.3609 292.493 27.7096 292.899C27.7408 293.45 27.7356 293.845 27.72 294.432C27.3765 293.886 27.0433 293.143 26.7258 292.197Z" fill="#E6C2B2" stroke="#DAA58E" stroke-miterlimit="10"/>
<path d="M53.7773 85.9735C53.5327 86.1399 53.3088 86.1503 52.9185 86.1607C53.0017 85.5368 53.2568 84.9026 53.642 84.1696C53.7825 84.6478 53.7877 85.2301 53.7721 85.9735H53.7773Z" fill="#E6C2B2" stroke="#DAA58E" stroke-miterlimit="10"/>
<path d="M26.8821 163.549C26.9289 162.941 27.1528 162.275 27.5483 161.563C27.5015 162.171 27.2777 162.837 26.8821 163.549Z" fill="#DCAA94" stroke="#DAA58E" stroke-miterlimit="10"/>
<path d="M27.8555 159.317C27.7982 158.943 27.8659 158.444 28.0897 157.908C28.1574 158.314 28.0689 158.756 27.8555 159.317Z" fill="#DCAA94" stroke="#DAA58E" stroke-miterlimit="10"/>
<path d="M44.7308 291.5C44.9026 291.588 44.9026 291.682 44.9078 291.911C44.6579 292.353 44.4029 292.659 43.9812 292.982C43.8355 292.623 43.8563 292.254 43.8823 291.698C44.1114 291.51 44.3352 291.505 44.7308 291.5Z" fill="#E2B9A7" stroke="#DAA58E" stroke-miterlimit="10"/>
<path d="M25.6485 168.971C25.8775 168.8 26.1118 168.794 26.5126 168.794C26.5959 169.231 26.5074 169.673 26.294 170.24C26.0181 170.286 25.888 170.183 25.711 169.943C25.6433 169.605 25.6433 169.377 25.6433 168.976L25.6485 168.971Z" fill="#DCAA94" stroke="#DAA58E" stroke-miterlimit="10"/>
<path d="M34.0027 349.861C34.341 350.09 34.6742 350.506 35.0125 351.093C34.6794 350.859 34.341 350.448 34.0027 349.861Z" fill="#DCAA94" stroke="#DAA58E" stroke-miterlimit="10"/>
<path d="M90.4844 273.705C90.7446 273.819 90.9164 274.017 91.0517 274.24C91.0622 274.261 90.8435 274.422 90.7342 274.516C90.6197 274.277 90.5 274.038 90.4844 273.7V273.705Z" fill="#DCAA94" stroke="#DAA58E" stroke-miterlimit="10"/>
<path d="M29.9375 145.281C29.8803 144.906 29.9479 144.407 30.1718 143.872C30.2394 144.277 30.1457 144.719 29.9375 145.281Z" fill="#DCAA94" stroke="#DAA58E" stroke-miterlimit="10"/>
<path d="M54.1209 165.197C54.0481 165.514 53.8034 165.826 53.4026 166.164C53.0903 166.127 52.955 166.023 52.7832 165.784C53.1267 165.514 53.538 165.353 54.1209 165.202V165.197Z" fill="#E6C2B2" stroke="#DAA58E" stroke-miterlimit="10"/>
<path d="M43.8979 251.641C44.2779 251.595 44.7048 251.719 45.2877 251.917C45.4387 251.99 45.4335 252.25 45.4335 252.374C44.9338 252.27 44.4393 252.042 43.8979 251.641Z" fill="#E1B7A5" stroke="#DAA58E" stroke-miterlimit="10"/>
<path d="M25.7681 173.894C25.7317 173.666 25.8098 173.333 26.0232 172.974C26.07 173.229 25.9763 173.51 25.7681 173.894Z" fill="#DCAA94" stroke="#DAA58E" stroke-miterlimit="10"/>
<path d="M29.3909 148.956C29.2243 148.748 29.1618 148.457 29.1983 148.083C29.3648 148.291 29.4273 148.582 29.3909 148.956Z" fill="#DCAA94" stroke="#DAA58E" stroke-miterlimit="10"/>
<path d="M25.2476 177.534C25.2112 177.3 25.2892 176.972 25.5079 176.613C25.5547 176.868 25.461 177.154 25.2476 177.534Z" fill="#DCAA94" stroke="#DAA58E" stroke-miterlimit="10"/>
<path d="M65.9313 359.609C63.412 359.343 61.0853 359.073 58.8418 358.668C62.7509 358.366 66.582 358.195 70.413 358.028C73.2446 358.132 74.2492 355.943 76.2272 353.588C74.0827 353.266 72.6148 352.84 71.1573 352.866C63.6983 353.017 56.2965 352.673 49.03 350.838C45.6987 349.996 42.737 348.556 40.5924 345.707C39.338 344.044 37.8701 342.702 35.2207 344.901C34.2421 339.214 33.3416 334.01 32.4463 328.593C33.326 329.991 34.2317 331.593 35.0853 333.22C36.7198 336.329 38.1095 336.469 40.1604 333.703C45.35 326.706 46.797 326.56 54.1363 331.016C60.4867 334.868 67.3003 337.046 74.9675 337.036C85.7735 337.02 94.4922 332.773 102.149 325.604C103.268 324.559 104.606 323.665 105.985 322.994C108.484 321.783 110.92 322.76 112.32 325.261C113.543 327.444 114.74 329.654 116.115 331.749C116.583 332.461 117.707 333.412 118.238 333.256C119.04 333.022 119.727 331.988 120.201 331.151C120.825 330.043 121.2 328.791 121.944 327.626C121.471 332.731 120.758 337.81 119.972 342.884C119.805 343.966 119.383 345.011 118.988 346.404C117.749 345.343 117 344.704 116.047 343.888C112.429 348.655 107.609 351.025 101.988 351.545C95.3823 352.154 88.7457 352.382 82.1299 352.871C80.8442 352.965 79.5898 353.495 78.3249 353.822C78.3041 354.207 78.2833 354.592 78.2676 354.982C80.1571 356.006 82.0466 357.025 84.0818 358.158C87.7827 358.361 91.3431 358.449 94.7317 358.678C90.1199 359.073 85.6746 359.437 81.2294 359.567C76.5864 359.702 71.9329 359.609 67.2847 359.614C66.8995 359.614 66.5143 359.614 65.9417 359.614M113.002 340.82C112.497 339.822 111.94 338.845 111.487 337.821C109.645 333.672 106.438 332.424 102.43 334.54C99.5257 336.069 96.8866 338.148 93.8989 339.458C81.6042 344.86 69.195 345.239 56.7494 339.791C54.7714 338.923 52.7361 338.143 50.6645 337.54C46.8595 336.427 43.4709 339.567 42.0551 343.389C40.8995 346.508 44.2673 346.944 46.0631 348.156C46.7606 348.624 47.6507 348.92 48.4887 349.045C52.7518 349.658 57.0148 350.506 61.3039 350.672C68.1383 350.942 74.9988 350.812 81.8436 350.724C88.069 350.646 94.3101 350.63 100.504 350.131C104.242 349.83 107.989 349.071 111.232 346.695C113.299 345.182 114.147 343.607 113.002 340.815V340.82Z" fill="#E2B9A7"/>
<path d="M65.9313 359.609C63.412 359.343 61.0853 359.073 58.8418 358.668C62.7509 358.366 66.582 358.195 70.413 358.028C73.2446 358.132 74.2492 355.943 76.2272 353.588C74.0827 353.266 72.6148 352.84 71.1573 352.866C63.6983 353.017 56.2965 352.673 49.03 350.838C45.6987 349.996 42.737 348.556 40.5924 345.707C39.338 344.044 37.8701 342.702 35.2207 344.901C34.2421 339.214 33.3416 334.01 32.4463 328.593C33.326 329.991 34.2317 331.593 35.0853 333.22C36.7198 336.329 38.1095 336.469 40.1604 333.703C45.35 326.706 46.797 326.56 54.1363 331.016C60.4867 334.868 67.3003 337.046 74.9675 337.036C85.7735 337.02 94.4922 332.773 102.149 325.604C103.268 324.559 104.606 323.665 105.985 322.994C108.484 321.783 110.92 322.76 112.32 325.261C113.543 327.444 114.74 329.654 116.115 331.749C116.583 332.461 117.707 333.412 118.238 333.256C119.04 333.022 119.727 331.988 120.201 331.151C120.825 330.043 121.2 328.791 121.944 327.626C121.471 332.731 120.758 337.81 119.972 342.884C119.805 343.966 119.384 345.011 118.988 346.404C117.749 345.343 117 344.704 116.047 343.888C112.429 348.655 107.609 351.025 101.988 351.545C95.3823 352.154 88.7457 352.382 82.1299 352.871C80.8442 352.965 79.5898 353.495 78.3249 353.822C78.3041 354.207 78.2833 354.592 78.2676 354.982C80.1571 356.006 82.0466 357.025 84.0818 358.158C87.7827 358.361 91.3431 358.449 94.7317 358.678C90.1199 359.073 85.6746 359.437 81.2294 359.567C76.5864 359.702 71.9329 359.609 67.2847 359.614C66.8995 359.614 66.5143 359.614 65.9417 359.614M113.002 340.82C112.497 339.822 111.94 338.845 111.487 337.821C109.645 333.672 106.438 332.424 102.43 334.54C99.5257 336.069 96.8866 338.148 93.8989 339.458C81.6042 344.86 69.195 345.239 56.7494 339.791C54.7714 338.923 52.7361 338.143 50.6645 337.54C46.8595 336.427 43.4709 339.567 42.0551 343.389C40.8995 346.508 44.2673 346.944 46.0631 348.156C46.7606 348.624 47.6507 348.92 48.4887 349.045C52.7518 349.658 57.0148 350.506 61.3039 350.672C68.1383 350.942 74.9988 350.812 81.8436 350.724C88.069 350.646 94.3101 350.63 100.504 350.131C104.242 349.83 107.989 349.071 111.232 346.695C113.299 345.182 114.147 343.607 113.002 340.815V340.82Z" stroke="#DAA58E" stroke-miterlimit="10"/>
<path d="M83.9259 358.044C82.0364 357.02 80.1469 356.001 78.2574 354.976C78.2782 354.592 78.2991 354.207 78.3147 353.817C79.5847 353.49 80.834 352.959 82.1197 352.866C88.7355 352.377 95.3721 352.148 101.978 351.54C107.599 351.025 112.419 348.655 116.037 343.882C116.995 344.699 117.739 345.338 118.978 346.399C119.373 345.01 119.795 343.966 119.961 342.879C120.742 337.805 121.455 332.726 122.07 327.501C121.945 327.127 121.945 326.898 122.137 326.493C122.71 326.311 123.085 326.305 123.465 326.3C122.72 331.931 122.007 337.566 121.226 343.191C120.638 347.454 119.92 351.701 119.352 355.964C119.077 358.033 118.004 358.99 115.938 359.073C107.943 359.395 99.9475 359.733 91.9575 360.118C85.8414 360.414 79.7305 360.919 73.6092 361.069C71.5531 361.121 69.471 360.362 67.3369 359.79C71.9175 359.598 76.5709 359.692 81.214 359.557C85.6644 359.427 90.1045 359.063 94.9401 358.668C98.084 358.361 100.838 358.189 103.591 358.033C106.688 357.857 109.796 357.758 112.888 357.498C114.439 357.368 115.568 355.2 115.043 353.36C114.574 351.727 113.981 350.168 111.623 351.14C104.611 354.035 97.2304 354.524 89.7557 354.405C88.47 354.384 87.1687 354.503 85.9039 354.727C84.0508 355.054 83.1451 356.079 83.9259 358.039V358.044Z" fill="#E6C2B2" stroke="#DAA58E" stroke-miterlimit="10"/>
<path d="M60.6638 255.255C61.7205 254.761 62.9125 254.121 64.1097 254.106C71.8862 254.012 79.6628 254.048 87.4341 254.059C96.2622 254.069 104.97 253.237 113.445 250.576C114.241 250.326 115.115 250.316 116.089 250.311C111.888 251.797 107.636 253.643 103.201 254.459C91.7076 256.565 80.048 256.934 68.3883 256.596C65.8482 256.523 63.3289 255.811 60.6638 255.255Z" fill="#E1B7A5" stroke="#DAA58E" stroke-miterlimit="10"/>
<path d="M46.49 252.182C50.2065 254.256 54.4487 254.423 58.8003 254.969C55.3024 254.943 51.6275 254.87 47.9787 254.522C47.4269 254.47 47.0053 253.123 46.49 252.182Z" fill="#E1B7A5" stroke="#DAA58E" stroke-miterlimit="10"/>
<path d="M122.939 325.271C123.215 323.295 123.485 321.32 123.891 319.194C123.928 321.024 123.834 322.999 123.475 325.131C123.116 325.276 123.027 325.276 122.939 325.271Z" fill="#E6C2B2" stroke="#DAA58E" stroke-miterlimit="10"/>
<path d="M122.783 325.307C123.027 325.271 123.116 325.276 123.34 325.276C123.475 325.505 123.48 325.734 123.48 326.129C123.095 326.305 122.715 326.311 122.142 326.321C122.179 325.994 122.403 325.671 122.783 325.307Z" fill="#E2B9A7" stroke="#DAA58E" stroke-miterlimit="10"/>
<path d="M97.1263 165.55C96.0644 165.68 95.1743 165.68 94.0552 165.67C93.1287 165.15 92.4624 164.277 91.7077 164.194C89.7713 163.98 87.7986 164.121 85.8414 164.121C85.6644 163.835 85.4927 163.544 85.3157 163.258C88.7199 159.775 92.5197 156.588 95.4086 152.725C98.3026 148.847 100.286 144.293 102.92 139.583C104.476 141.304 106.293 142.811 107.448 144.714C109.358 147.87 110.852 151.28 112.492 154.597C113.616 156.874 115.152 159.14 113.059 161.942C115.188 161.178 117.286 160.31 119.457 159.686C120.649 159.343 121.955 159.406 123.756 159.234C123.756 157.44 123.756 155.221 123.886 152.84C124.532 155.881 125.141 159.068 125.547 162.286C126.145 167.058 126.614 171.851 127.098 176.639C127.171 177.346 127.015 178.079 126.338 178.963C125.921 178.105 125.401 177.284 125.099 176.385C123.907 172.797 122.762 169.195 121.643 165.587C120.773 162.785 118.743 162.202 116.156 162.592C109.869 163.533 103.576 164.474 97.1159 165.55H97.1263Z" fill="#E6C2B2" stroke="#DAA58E" stroke-miterlimit="10"/>
<path d="M114.668 115.773C114.756 117.337 114.678 118.934 114.959 120.462C115.797 125.026 116.89 129.549 117.629 134.129C117.884 135.694 117.385 137.379 117.208 139.24C116.411 138.923 116.068 138.897 115.979 138.735C110.608 128.463 104.767 118.403 101.519 107.164C100.208 102.62 98.9115 98.071 97.8341 93.4701C97.5998 92.4772 98.3181 91.2607 98.5992 90.1429C99.557 90.5692 100.728 90.7824 101.431 91.4686C103.56 93.5585 105.501 95.8355 107.771 98.2322C108.494 99.1783 108.968 99.9425 109.442 100.702C109.442 100.702 109.447 100.956 109.478 101.273C110.353 103.545 111.201 105.5 112.049 107.455C112.18 107.871 112.31 108.292 112.534 109.056C113.304 111.525 113.981 113.652 114.657 115.778L114.668 115.773Z" fill="#EACCBF" stroke="#DAA58E" stroke-miterlimit="10"/>
<path d="M107.36 95.3C106.402 93.9587 105.267 92.4979 104.518 90.8603C102.93 87.3927 101.546 83.8316 100.078 80.1041C100.838 81.1179 101.738 82.2668 102.326 83.5561C104.065 87.3771 105.684 91.2502 107.355 95.3H107.36Z" fill="#E6C2B2" stroke="#DAA58E" stroke-miterlimit="10"/>
<path d="M114.793 115.908C113.991 113.646 113.314 111.52 112.612 109.201C112.976 109.42 113.554 109.763 113.715 110.246C115.016 114.067 116.234 117.909 117.374 121.876C116.484 120.015 115.698 118.024 114.793 115.903V115.908Z" fill="#E6C2B2" stroke="#DAA58E" stroke-miterlimit="10"/>
<path d="M120.877 133.251C120.466 132.793 119.894 132.18 119.665 131.457C118.821 128.801 118.098 126.108 117.302 123.228C118.108 124.626 119.113 126.16 119.717 127.839C120.315 129.497 120.503 131.301 120.877 133.251Z" fill="#E6C2B2" stroke="#DAA58E" stroke-miterlimit="10"/>
<path d="M112.18 107.319C111.211 105.495 110.363 103.54 109.494 101.393C110.415 103.197 111.357 105.193 112.18 107.319Z" fill="#E6C2B2" stroke="#DAA58E" stroke-miterlimit="10"/>
<path d="M97.4697 74.5104C96.7982 73.7826 96.1268 72.8624 95.4241 71.7603C96.0851 72.4933 96.7774 73.4083 97.4697 74.5104Z" fill="#E6C2B2" stroke="#DAA58E" stroke-miterlimit="10"/>
<path d="M109.452 100.499C108.978 99.9374 108.505 99.1783 107.958 98.2634C107.885 98.0138 107.891 97.9254 107.896 97.7019C108.416 98.4765 108.937 99.3863 109.452 100.499Z" fill="#E6C2B2" stroke="#DAA58E" stroke-miterlimit="10"/>
<path d="M123.496 147.287C123.147 146.757 122.809 146.019 122.465 145.078C122.809 145.613 123.152 146.346 123.496 147.287Z" fill="#E6C2B2" stroke="#DAA58E" stroke-miterlimit="10"/>
<path d="M124.021 151.452C123.761 150.874 123.511 150.095 123.376 149.18C123.673 149.778 123.85 150.516 124.021 151.452Z" fill="#E6C2B2" stroke="#DAA58E" stroke-miterlimit="10"/>
<path d="M99.0158 77.6556C98.615 77.2085 98.1985 76.5898 97.8862 75.8568C98.3287 76.3247 98.6618 76.9018 99.0158 77.6556Z" fill="#E6C2B2" stroke="#DAA58E" stroke-miterlimit="10"/>
<path d="M122.58 143.731C122.293 143.44 122.127 143.035 121.955 142.453C122.2 142.728 122.45 143.17 122.58 143.731Z" fill="#E6C2B2" stroke="#DAA58E" stroke-miterlimit="10"/>
<path d="M122.038 141.148C121.783 140.997 121.622 140.747 121.45 140.347C121.669 140.482 121.903 140.763 122.038 141.148Z" fill="#E6C2B2" stroke="#DAA58E" stroke-miterlimit="10"/>
<path d="M121.523 138.028C121.268 137.878 121.106 137.628 120.929 137.233C121.148 137.363 121.382 137.649 121.523 138.028Z" fill="#E6C2B2" stroke="#DAA58E" stroke-miterlimit="10"/>
<path d="M100.051 79.7403C99.7599 79.6571 99.4372 79.4128 99.0833 79.0125C99.3747 79.0956 99.6975 79.34 100.051 79.7403Z" fill="#E6C2B2" stroke="#DAA58E" stroke-miterlimit="10"/>
<path d="M121.002 135.959C120.836 135.751 120.763 135.465 120.794 135.091C120.961 135.294 121.034 135.585 121.002 135.959Z" fill="#E6C2B2" stroke="#DAA58E" stroke-miterlimit="10"/>
<path d="M79.7512 91.5778C78.8039 77.3489 79.1162 63.3643 80.5789 49.4005C80.5789 54.6928 80.5737 59.9903 80.5789 65.2826C80.5893 71.0584 80.6101 76.8342 80.7142 82.8075C80.7975 86.821 80.7975 90.6368 80.6257 94.7074C80.2301 94.9622 80.0063 94.9674 79.7825 94.9778C79.7721 93.9224 79.7669 92.8671 79.746 91.583L79.7512 91.5778Z" fill="#DCAA94" stroke="#DAA58E" stroke-miterlimit="10"/>
<path d="M79.6575 95.1181C80.0114 94.9673 80.2352 94.9621 80.6308 94.9465C80.7974 96.5269 80.7974 98.1126 80.7974 99.7034C80.5007 99.7242 80.2092 99.7398 79.9125 99.7606C79.7876 98.2633 79.6575 96.7609 79.6575 95.1181Z" fill="#E6C2B2" stroke="#DAA58E" stroke-miterlimit="10"/>
<path d="M78.6372 165.556C78.2937 165.748 77.846 165.826 77.2891 165.79C77.6326 165.597 78.0803 165.519 78.6372 165.556Z" fill="#E6C2B2" stroke="#DAA58E" stroke-miterlimit="10"/>
<path d="M61.3561 165.233C60.5702 167.178 57.5251 167.37 55.8386 165.426C57.5824 165.218 59.3469 165.213 61.3561 165.233Z" fill="#E6C2B2" stroke="#DAA58E" stroke-miterlimit="10"/>
<path d="M70.413 357.825C66.582 358.2 62.7509 358.366 58.6753 358.532C52.835 358.194 47.2447 357.815 41.6439 357.545C39.6659 357.451 39.1089 356.515 39.3328 354.696C39.9626 349.632 40.0042 349.461 45.0377 351.431C51.997 354.15 59.2218 354.836 66.5768 354.919C68.4402 354.94 70.3818 354.961 70.413 357.825Z" fill="#DCAA94" stroke="#DAA58E" stroke-miterlimit="10"/>
<path d="M113.059 341.018C114.147 343.612 113.299 345.187 111.232 346.7C107.989 349.076 104.242 349.835 100.504 350.136C94.3102 350.636 88.0691 350.646 81.8437 350.729C74.9989 350.818 68.1384 350.947 61.304 350.677C57.0149 350.506 52.7519 349.663 48.4888 349.05C47.6508 348.93 46.7607 348.634 46.0632 348.161C44.2674 346.95 40.8996 346.508 42.0552 343.394C43.471 339.573 46.8596 336.438 50.6646 337.545C52.7363 338.148 54.7715 338.933 56.7495 339.796C69.1899 345.244 81.5991 344.865 93.899 339.464C96.8868 338.153 99.5258 336.074 102.43 334.545C106.444 332.43 109.645 333.677 111.487 337.826C111.94 338.85 112.492 339.827 113.059 341.018Z" fill="#E6C2B2" stroke="#DAA58E" stroke-miterlimit="10"/>
<path d="M84.0717 358.153C83.1452 356.079 84.0509 355.055 85.9091 354.727C87.174 354.503 88.4805 354.384 89.761 354.405C97.2356 354.524 104.622 354.036 111.628 351.14C113.986 350.168 114.585 351.727 115.048 353.36C115.574 355.2 114.439 357.368 112.893 357.498C109.801 357.758 106.693 357.857 103.596 358.033C100.843 358.189 98.0893 358.361 95.1119 358.532C91.3329 358.444 87.7726 358.356 84.0717 358.153Z" fill="#DCAA94" stroke="#DAA58E" stroke-miterlimit="10"/>
</g>
<defs>
<filter id="filter0_d_289_1616" x="0.0999999" y="0.0999999" width="162.8" height="404.8" filterUnits="userSpaceOnUse" color-interpolation-filters="sRGB">
<feFlood flood-opacity="0" result="BackgroundImageFix"/>
<feColorMatrix in="SourceAlpha" type="matrix" values="0 0 0 0 0 0 0 0 0 0 0 0 0 0 0 0 0 0 127 0" result="hardAlpha"/>
<feOffset dx="4" dy="4"/>
<feGaussianBlur stdDeviation="3.95"/>
<feColorMatrix type="matrix" values="0 0 0 0 0.418315 0 0 0 0 0.211946 0 0 0 0 0.208866 0 0 0 0.15 0"/>
<feBlend mode="normal" in2="BackgroundImageFix" result="effect1_dropShadow_289_1616"/>
<feBlend mode="normal" in="SourceGraphic" in2="effect1_dropShadow_289_1616" result="shape"/>
</filter>
<clipPath id="clip0_289_1616">
<rect width="147" height="389" fill="white" transform="translate(4 4)"/>
</clipPath>
</defs>
</svg>
