<?xml version="1.0" encoding="UTF-8"?>
<svg id="Layer_1" data-name="Layer 1" xmlns="http://www.w3.org/2000/svg" viewBox="0 0 284.88 748.08">
  <defs>
    <style>
      .cls-1 {
        fill: #e1b7a5;
      }

      .cls-1, .cls-2, .cls-3, .cls-4, .cls-5, .cls-6, .cls-7 {
        stroke: #daa58e;
        stroke-miterlimit: 10;
      }

      .cls-2 {
        fill: #f8efeb;
      }

      .cls-3 {
        fill: #daa58e;
      }

      .cls-4 {
        fill: #eaccbf;
      }

      .cls-5 {
        fill: #e6c2b2;
      }

      .cls-6 {
        fill: #e2b9a7;
      }

      .cls-7 {
        fill: #dcaa94;
      }
    </style>
  </defs>
  <path class="cls-3" d="M136.98,3.87c2.1-5,6.7-3.1,9.8-2.6,3.9.6,4.9,4.6,5.3,8.4.5,4.2.8,8.5,2,12.5,2.2,7.1,6.3,12.2,14,14.7,3.5,1.2,6.8,4.9,8.8,8.3,6.2,10.6,11.8,21.6,17.4,32.6,7.8,15,15.7,29.9,23,45.1,13.7,28.2,26.5,56.9,35,87.2,5.4,19.1,9.5,38.7,13.6,58.1,3.7,17.8,6.9,35.7,10,53.6,2,11.2,3.7,22.5,5.1,33.8,5.6,48,2.5,96.2,2.9,144.3.2,19.8-1.9,39.6-5.7,59.1-3,15.5-4.7,31.2-7.2,46.8-2.1,13-4.7,25.9-6.8,38.9-2.2,13.7-4,27.4-6.2,41.1-2.2,13.6-4.5,27.2-7.1,40.8-1.2,6.4-5.7,9.3-13.5,9.3-12.3,0-24.7-.1-37,0-10.9.1-21.9.5-32.8,1-3.4.2-6.8.8-9.9,2.1-1.9.8-3.2,3.2-4.7,4.9-.4.4-.3,1.7-.5,1.8-4.4.8-8.9,2-13.3,1.9-2,0-5.2-2.3-5.6-4.2-1-3.9-3.8-4.9-6.7-5.4-4.2-.8-8.5-1-12.7-1.1-21.9-.4-43.8-.7-65.8-1-7.2-.1-12.1-4.1-13.3-11.2-2.5-14.9-4.6-29.9-7.1-44.8-2.5-15.2-5.3-30.4-7.8-45.6-2.2-13.2-4-26.4-6.2-39.6-1.8-11.4-3.9-22.7-5.7-34.2-1.3-8.2-2.2-16.5-2.9-25.1,2.7,1.8,4.8,5.6,8.2,1.1,3.5-4.8,6.8-9.9,10.1-14.9.5-.8.9-1.8,1.1-2.8,1.3-5.5,2.5-11.1,3.7-16.7,1.9-8.5,4.4-17,5.4-25.7,1.6-14,2.4-28,3.1-42.1,1.2-25.2,2.1-50.3,3.1-75.9,0-1.5,0-2.5.3-3.9.7-3.4,1.2-6.6,1.7-10.1.3-3.8.7-7.2,1.2-10.8.4-.7.6-1.3.8-2.2,0-1.8,0-3.2.2-4.8.4-.7.6-1.3.8-2.2,0-1.8,0-3.2.2-4.8.4-1.1.6-1.9.8-3.2,0-3.5,0-6.5.4-9.6.8-1.4,1.2-2.6,1.6-4.3,0-1.5,0-2.5.2-3.8.4-1.1.6-1.9.8-3.2.7-5.8,1.3-11.2,2.2-16.7,0-.7,0-1.3-.1-2.2.3-1.8.6-3.2,1.2-4.9.4-1.1.6-1.9.8-3.1,0-.8,0-1.2.3-2,4.3-15.5,6.9-31.2,12.6-45.7,12.6-32.7,26.6-64.8,40.3-97,6.1-14.4,12.7-28.6,19.1-42.9.3-.8.6-1.6,1.1-2.2,1.6-2.2,3.8-2.4,4.4.3.7,3,.4,6.4,0,9.5-.4,2.5-1.7,5-2.7,7.7-6,10.7-12,21-17.6,31.5-3.4,6.2-6.1,12.8-9.3,19.6-1.1,2.4-2,4.6-3.1,6.9-.7,1.4-1.2,2.6-2,4.1-.5,1.4-.7,2.5-1.2,3.7-2.1,2.5-5.5,4.3-2.9,8.3-.7,1-1.2,1.8-2.1,2.7-1.4,2.1-2.4,4.1-3.6,6.3-.4,1.1-.6,1.9-1.1,2.9-4.4,10.8-8.5,21.3-12.9,32.2-2.1,8-4.1,15.7-6.4,23.6-1,1.8-2,3.3-2.3,5-2.1,10.6-4.1,21.3-6.3,32.3-2.1,14-4.2,27.7-6.2,41.3.4,0,.7.2,1.1.2,1.9-7,3.7-13.9,5.6-20.9.6-.1,1.2-.2,1.8-.3,7.6,10,17.6,14.9,30.3,15.2,2.5,0,4.5,0,6.6.3.3.5.6.7.9,1.2-.6,1.5-1.2,2.7-1.7,3.9-1.8,4.2-4.1,8.4-5.2,12.8-1.4,5.7-1.9,11.7-2.8,17.6-1.4,9.2-3.1,18.3.7,27.7,2.5,1.8,4.7,4.1,7.3,4.4,3.7.5,7.6-.6,11.4-.7,18.2-.7,36.5-1.4,54.7-2,10.2-.4,20.4-1.1,30.6-.9,8.1.1,16.4.5,24.2,2.5,5,1.2,11.2,2.3,13.4,8.3-13.7-1.4-27.1-3.3-40.4-3.8-19.9-.6-39.8-.3-59.7-.1-15,.1-29.9.2-44.9,1.1-10,.6-20,2.4-30,3.8-5.7.8-9.3,4.4-9.6,9.9-.6,10.8-.4,21.5-.5,32.3,0,.3.4.5.5,1.3.3,4.6.7,8.7,1,12.8,1.2,17.7,16.7,30.5,33.1,33.1,1,.8,2,1.2,2.9,2-2,4.5-5.4,8.7-5.5,12.9-.3,12.1.7,24.2,1.3,36.2.2,4.1,2.6,5.6,6.7,5.5,10.5-.3,21,.8,31.5-1.7,8.9-2.1,18.5.1,27.3-3.4,2.6-1,4.9-2.8,7.4-4.1,1.2-.7,2.9-2,3.7-1.6,3.7,1.6,6.4-.4,9.2-2,3.3-1.9,5.8-5.5,10.4-4.4.4.1,1.2-2,2.1-2.8,1.1-.9,2.5-1.9,3.8-1.9,3.8,0,7.6.4,11.9.7-.7-2.8-1.1-4.5-1.6-6.2.5-.3,1-.6,1.5-.9,1.3,1.7,2.9,3.2,3.9,5,1.7,3,3.1,2.8,5.3.1-2-1.7-3.7-3.3-5.5-4.8,3.2-.5,6-1,8.2-1.3,1.3,1.8,2.5,3.5,3.7,5.2,1.8-2.1,3.6-4.2,6-7,1.7,2.5,3.9,5.1,5.1,8.1.3.7-2.8,2.8-4.6,4.5,1.2,1.4,2.5,4,4.5,4.8,4.4,1.7,7.9,3.5,7.7,8.9-.2,4.2.1,8.5-.6,12.6-1.3,7.3-7.8,9.3-13.9,12.1-3.8.3-7.2.6-10.9.9-1.1,0-1.8,0-2.7-.4-3.1-.4-6-.5-9.4-.6-1.5,0-2.5,0-3.9-.2-1.5-.3-2.6-.6-3.8-.6-17,.2-34.1.6-51.1.7-12.3.1-24.5,0-37.1-.2-4.1,0-7.9.2-12,.4h-2.1c-1.8,0-3.1-.1-4.4,0-6.1.5-11.3-.6-15.1-6.2-1.2-1.8-4-2.6-6.3-4.1-3.8-2.9-6.2-6-5.8-11.1-.7-2-1.5-3.7-2.2-5.3-.4.1-.9.2-1.3.3-1,5.5-.1,10.9,1.6,16.6v2.1c.3,2.5.7,4.5,1,6.9v2c.6,1.8,1.2,3.3,1.9,5.1,0,1.1,0,1.8-.2,2.9.2,2.1.7,4,1.1,6.2,0,1.1,0,1.8-.2,2.8.2,4.6.6,9,1.2,13.3.3,2.2,1.3,4.3,1.9,6.8,0,.7,0,1.2-.2,1.9.6,4.1,1.5,7.9,2.3,12,0,.8,0,1.2-.2,1.9.2,1.8.7,3.3,1.2,5.1,0,.8,0,1.2-.2,1.9,0,4,.3,7.8.7,11.5,1.5,13.1,3.1,26.1,4.6,39.5.6,1.1,1.3,1.9,2,3.1,0,1.1,0,1.9-.2,2.9.2,2.1.7,3.9,1.2,6.1,0,1.1,0,1.9-.2,2.9-1.2,6.5.6,9.3,7.3,9.6,13.5.6,27.1.6,40.7,1.2,6.7.3,13.4.7,20,1.8,5.2.9,10.2,2.7,15-1.2.7-.6,1.9-.6,2.9-.7,8.7-.5,17.5-.8,26.2-1.3,14-.8,28.1-1.9,42.1-2.7,6.8-.4,8.9-1.9,10-8.6,2.1-12.4,4-24.9,5.9-37.3,1.8-11.6,3.5-23.3,5.3-34.9,1.7-10.8,3.2-21.7,5.1-32.4,2.8-15.1,6.7-30.1,8.6-45.3,2.5-19.7,3.5-39.6,5-59.4.7-8.7.8-17.5,1.3-26.2.8-13.4,2.2-26.8,2.6-40.2.3-10.3,0-20.6-1-30.9-1.5-17.1-3.6-34.2-5.6-51.3-.9-7.7-2.2-15.4-3.3-23-.8-5.8-1.4-11.8-2.6-17.5-2.9-14.4-5.6-28.9-9.4-43.2-3.9-14.8-8.7-29.5-13.6-44-2.7-7.9-6.2-15.6-9.8-23.3-7.4-15.6-15-31-22.6-46.5-5.3-10.8-10.6-21.7-16.3-32.3-3.9-7.3-8.5-14.2-12.9-21.2-.9-1.4-2.8-2.2-4.3-3.2-2.5-1.6-4.3-1.3-5.4,1.7-1.2,3.2-2.5,6.3-4,10.2-2.9-8.5-6.7-16-7.9-24-1.9-13.1-2.1-26.4-3.2-39.6-.3-3.6-1.3-7.1-2-10.7M168.38,518.97c.2.5.4.9.7,1.4.2-.2.6-.5.6-.5-.3-.4-.6-.8-1.3-.9Z"/>
  <path class="cls-7" d="M127.98,95.97c.9-2.5,2.2-4.9,2.6-7.4.5-3.1.7-6.5,0-9.5-.6-2.7-2.8-2.4-4.4-.3-.5.7-.7,1.5-1.1,2.2-6.4,14.3-13,28.5-19.1,42.9-13.6,32.3-27.6,64.4-40.3,97-5.6,14.6-8.3,30.2-12.8,45.4-.6-1.6-1.1-3.3-.8-4.9,2.4-13.7,4.8-27.4,7.5-41,3.1-15.2,3.2-30.3.2-45.4-.9-4.3-2.2-8.6-3.4-12.8-2.4,1.2-4.1,1.9-5.7,2.7,2.4-6,4.4-12.1,7.2-17.9,12.9-26.6,26-53.2,39.3-79.7,4.5-8.9,9.8-17.5,15-26.1,1.3-2.1,3.8-4.1,6.1-5,9.6-3.6,14.9-10.5,15.6-20.7.3-3.8,1.4-7.6,2.5-11.6,1,3.4,2,6.9,2.3,10.5,1.1,13.2,1.2,26.6,3.2,39.6,1.2,7.9,5,15.4,7.9,24,1.5-3.9,2.8-7,4-10.2,1.1-2.9,3-3.3,5.4-1.7,1.5,1,3.4,1.8,4.3,3.2,4.5,6.9,9,13.9,12.9,21.2,5.7,10.6,10.9,21.5,16.3,32.3,7.6,15.5,15.2,30.9,22.6,46.5,3.6,7.6,7.1,15.3,9.8,23.3,4.9,14.5,9.7,29.2,13.6,44,3.8,14.2,6.5,28.7,9.4,43.2,1.2,5.8,1.7,11.7,2.6,17.5,1.1,7.7,2.4,15.3,3.3,23,2,17.1,4.1,34.2,5.6,51.3.9,10.2,1.3,20.6,1,30.9-.4,13.4-1.8,26.8-2.6,40.2-.5,8.7-.7,17.5-1.3,26.2-1.5,19.8-2.6,39.7-5,59.4-1.9,15.2-5.8,30.2-8.6,45.3-2,10.8-3.5,21.6-5.1,32.4-1.8,11.6-3.5,23.3-5.3,34.9-1.9,12.5-3.9,24.9-5.9,37.3-1.1,6.7-3.1,8.2-10,8.6-14,.8-28.1,1.9-42.1,2.7-8.7.5-17.5.8-26.2,1.3-1,0-2.2.1-2.9.7-4.8,3.9-9.8,2.1-15,1.2-6.6-1.1-13.3-1.6-20-1.8-13.6-.5-27.1-.6-40.7-1.2-6.7-.3-8.6-3-7-9.4,2.2.8,3.9,2.3,5.6,2.4,15.7.8,31.4,1.5,47.1,2.1,1.7,0,3.5-.6,5.6-.9,1.1,0,1.8,0,2.7.4,4.1,1.1,8.1,2.6,12.1,2.5,11.8-.3,23.5-1.3,35.3-1.8,15.4-.7,30.7-1.4,46.1-2,4-.2,6-2,6.6-6,1.1-8.2,2.5-16.4,3.6-24.6,1.5-10.8,2.9-21.7,4.3-32.8,0-.8,0-1.2.2-1.9.4-4.1.6-7.9.8-12,0-.8,0-1.2.4-1.8,1.8-8.2,3.4-16.2,4.5-24.3,2.1-15.1,3.9-30.1,5.7-45.2.3-2.6,0-5.2,0-7.8-.5,0-.9-.2-1.4-.3-.7,1-2,2-2.1,3.1-.2,7.7-5.3,11.7-10.9,15.5-.8.5-1.6,1.3-2.1,2.1-3.7,5.8-8.1,7.6-15.2,6.1,5.6-2.8,12.1-4.8,13.4-12.1.7-4.1.4-8.4.6-12.6.3-5.4-3.3-7.2-7.7-8.9-2-.8-3.3-3.4-4.5-4.8,1.8-1.7,4.9-3.8,4.6-4.5-1.2-3-3.4-5.6-5.1-8.1-2.4,2.8-4.2,4.9-6,7-1.2-1.7-2.4-3.4-3.7-5.2-2.3.4-5.1.8-8.2,1.3,1.7,1.5,3.5,3.1,5.5,4.8-2.1,2.6-3.6,2.9-5.3-.1-1-1.8-2.6-3.4-3.9-5-.5.3-1,.6-1.5.9.4,1.7.9,3.4,1.6,6.2-4.3-.3-8.1-.7-11.9-.7-1.3,0-2.7,1-3.8,1.9-.9.7-1.6,2.9-2.1,2.8-4.6-1.1-7.1,2.6-10.4,4.4-2.9,1.6-5.5,3.6-9.2,2-.9-.4-2.5.9-3.7,1.6-2.5,1.3-4.8,3.1-7.4,4.1-8.8,3.5-18.5,1.3-27.3,3.4-10.6,2.5-21,1.5-31.5,1.7-4.1.1-6.5-1.4-6.7-5.5-.6-12.1-1.6-24.2-1.3-36.2.1-4.2,3.5-8.4,5.5-13.2,0-.6,0-1.1.4-1.1.8,0,1.2,0,1.7.4,1,1.8,1.8,4.4,2.9,4.5,7,.7,14.1.8,21.5,1.1,1.1,0,1.9,0,2.9.3,5.1,1.1,10,2.4,14.8,2.6,22.4.6,44.8,0,66.9-4.1,8.5-1.6,16.7-5.1,25.3-7.8,1.1-.4,1.9-.7,3.1-1,7.1-1.3,13.9-2.6,21.7-4,.5-4.2,1.5-9.7,1.8-15.3.8-15.6,1.9-31.1,1.9-46.7,0-16.8-.5-33.6-2-50.3-1.7-20.1-4.1-40.2-7.2-60.2-2.8-18.5-6.7-36.9-10.5-55.2-5.1-24.7-14.6-47.9-25-70.8-6.9-15.1-13.7-30.3-21.4-45.1-6.9-13.3-14.6-26.1-22.3-38.9-1.4-2.3-4.2-4-6.8-5.2-5-2.4-10.2-4.3-15.7-6.5v7.6c0,6.5-4.1,10-8,13.6l.2-.2Z"/>
  <path class="cls-7" d="M39.98,358.97c-1,25.2-1.9,50.3-3.1,75.5-.7,14-1.5,28.1-3.1,42.1-1,8.6-3.5,17.1-5.4,25.7-1.2,5.6-2.4,11.1-3.7,16.7-.2,1-.6,1.9-1.1,2.8-3.3,5-6.5,10.1-10.1,14.9-3.3,4.6-5.5.7-8.1-1.5-1-11.8-2-23.6-2.4-35.4-.4-10.9,0-21.9.3-33.2,2.7,1.4,4.2,2.2,5.8-1.7,3-7.5,7.1-14.6,10.3-22.1,4.1-9.6,9.2-19.1,11.3-29.1,3.2-15,4.2-30.5,6.3-45.8.4-3,1.9-5.9,2.9-8.9h.1Z"/>
  <path class="cls-5" d="M3.18,425.97c0-10.7-.1-21.4.2-32.5,1.5.5,2.6,1.4,4.2,2.6,1.1-1.9,2.1-3.4,2.8-5,4.4-9.7,8.9-19.3,13.1-29.1,10.1-23.4,15.4-48,16.4-73.5.9-21.6,0-43.2-3.8-64.6-.5-2.9-1.3-4.2-4.2-4,2.7-8.8,5.3-17.5,8.5-26.7,3.7-1.9,5.2-.4,5.6,2.7.3,2.8.4,5.6.7,8.4,1.1,11.5,2.5,23.1,3.3,34.6.4,5.9-.3,11.9-.9,17.9-1.5,15-3.2,30-4.7,45-.5,5-.2,10.1-.3,15.4,0,.8,0,1.2-.4,1.8-.8.8-1.5,1.4-1.6,2.1-2.4,11-4.4,22.1-7,33.1-3.1,13-5.8,26.3-10.4,38.9-4.2,11.6-10.6,22.5-16.1,33.7-.4.8-1.2,1.4-1.9,2.1-1.3-1.1-2.4-2-3.5-2.9h0Z"/>
  <path class="cls-6" d="M31.48,220.07c3.3-.4,4.1.9,4.6,3.8,3.7,21.4,4.7,42.9,3.8,64.6-1,25.4-6.3,50-16.4,73.5-4.2,9.8-8.7,19.4-13.1,29.1-.7,1.6-1.7,3.1-2.8,5-1.6-1.2-2.7-2.1-4.1-3.1.3-10.1.9-20.2,1.9-30.6,2.6,1.8,4.2,1,5.2-1.6,3.1-8.1,6.2-16.1,9.1-24.2,9-24.8,10.1-50.7,9.2-76.7,0-1.9-.9-3.8-1.4-5.9-1.8.4-3,.6-4.3.9,2.7-11.6,5.4-23.1,8.4-34.9l-.1.1Z"/>
  <path class="cls-1" d="M3.08,426.47c1.2.4,2.3,1.4,3.6,2.5.6-.7,1.5-1.3,1.9-2.1,5.5-11.2,11.9-22,16.1-33.7,4.5-12.6,7.2-25.8,10.4-38.9,2.6-11,4.7-22,7-33.1.2-.7.8-1.3,1.8-1.9.7.4.9.6,1.2.7,0,1.4,0,2.8-.3,4.6-.4,1.1-.6,1.7-.7,2.4,0,1.4,0,2.8-.3,4.6-.4,1.1-.6,1.7-.7,2.4-.3,3.4-.7,6.8-1.4,10.7-.8,3.8-1.2,7.1-1.6,10.3v3.6c-1,3.4-2.5,6.3-2.9,9.3-2.2,15.3-3.1,30.7-6.3,45.8-2.2,10.1-7.2,19.5-11.3,29.1-3.2,7.5-7.3,14.6-10.3,22.1-1.6,3.9-3,3.1-5.7,1.2-.4-13.1-.4-26.1-.4-39.6h-.1Z"/>
  <path class="cls-1" d="M43.98,316.97c0-5-.2-10.1.3-15.1,1.4-15,3.2-30,4.7-45,.6-5.9,1.3-12,.9-17.9-.7-11.6-2.1-23.1-3.3-34.6-.3-2.8-.4-5.6-.7-8.4-.3-3.1-1.8-4.6-5.4-3,3-9.2,6.4-18.4,10-27.8,1.9-.9,3.5-1.7,6-2.9,1.1,4.3,2.5,8.5,3.4,12.8,3,15.1,2.9,30.3-.2,45.4-2.8,13.6-5.1,27.3-7.5,41-.3,1.6.2,3.3.6,5.2.2.7.2,1.2,0,2-.4,1.4-.6,2.3-.7,3.3-.3,1.4-.6,2.9-1.1,4.8-.1,1.1,0,1.6.1,2.2-.7,5.4-1.3,10.8-2.3,16.6-.4,1.5-.6,2.4-.7,3.4,0,1.1,0,2.1-.4,3.7-.8,1.8-1.2,3-1.6,4.3,0,3,0,6-.4,9.5-.8.5-1.2.5-1.7.5h0Z"/>
  <path class="cls-4" d="M23.08,255.37c1.3-.7,2.6-1,4.4-1.3.5,2.1,1.4,4,1.4,5.9.9,26-.2,51.8-9.2,76.7-2.9,8.1-6.1,16.2-9.1,24.2-1,2.6-2.5,3.4-5.1,1.2.7-8.1,1.4-16.2,2.6-24.2,1.8-11.2,3.9-22.3,5.9-33.4,3-16.2,6-32.4,9.1-49v-.1Z"/>
  <path class="cls-1" d="M135.98,81.97v-7.2c5.5,2.2,10.7,4.1,15.7,6.5,2.5,1.2,5.4,2.9,6.8,5.2,7.7,12.8,15.4,25.7,22.3,38.9,7.6,14.8,14.5,29.9,21.4,45.1,10.4,22.9,19.9,46.1,25,70.8,3.8,18.3,7.7,36.7,10.5,55.2,3.1,20,5.5,40.1,7.2,60.2,1.4,16.7,2,33.5,2,50.3,0,15.6-1.1,31.1-1.9,46.7-.3,5.6-1.3,11.1-1.8,15.3-7.8,1.5-14.5,2.8-21.6,3.7.1-.8.5-1.5,1-1.8,11.5-6,17.2-16,18.4-28.4,1-10.2.9-20.6,1-30.9,0-1.8-1.4-3.6-2.2-5.4-1,1.5-2.4,3-3.1,4.6-2.6,6.4-3.6,14-7.7,19.1-4.5,5.6-8.1,11.1-10.1,17.9-.8,2.9-2.1,5.6-3.5,8.3-2.7,5.1-7,7.6-13,7.2-1.6,0-3.8.7-4.9,1.8-3.3,3.6-6.4,2.5-10.3,1-10.1-4-20.2-8.5-30.8-10.9-8.2-1.9-17-1.2-25.6-1.3-15.1-.2-28.8,5.2-42.4,11-8,3.4-15.4,5.5-21.2-4.3-5.3-9-10.2-18.2-15-27.5-1.7-3.4-3.5-5.1-7.3-3.3-.2-.3-.5-.5-.5-.8.1-10.8,0-21.6.5-32.3.3-5.5,3.9-9.1,9.6-9.9,10-1.4,20-3.2,30-3.8,14.9-.9,29.9-1,44.9-1.1,19.9-.2,39.9-.5,59.7.1,13.4.4,26.7,2.4,40.7,4,3.1,1.1,5.6,1.9,8.4,2.8.3-1.3.7-2.3.6-3.2-1.6-12.5-3.3-24.9-5-37.4-1.6-12-4.8-23.5-12-33.4-1.3-1.8-3.7-3.6-5.8-3.8-4.2-.4-8.6.5-12.9.5-7.4,0-14.8-.4-21.9-.9,12.4-2.1,24.5-3.9,36.6-5.7,5-.7,8.9.4,10.5,5.8,2.1,6.9,4.3,13.9,6.6,20.8.6,1.7,1.6,3.3,2.4,5,1.3-1.7,1.6-3.1,1.5-4.5-.9-9.2-1.8-18.4-3-27.6-.8-6.2-1.9-12.3-2.9-18.8v-2c-.3-1.8-.7-3.2-1-5v-3c-.7-1.8-1.3-3.2-2-5,0-.8,0-1.2.2-1.9-.3-1.1-.7-1.9-1.2-3.1,0-.8,0-1.2.2-1.8-.3-.7-.7-1.3-1.2-2.2,0-1.5,0-2.5.2-3.8-.3-.7-.7-1.3-1.2-2.2,0-.8,0-1.2.2-1.8,0-.7,0-1.3-.2-2.2v-3c-.7-3.7-1.1-7.2-2.2-10.4-1.2-3.2-3.1-6.2-4.7-9.6,0-.8,0-1.2.2-1.9-2.2-7.6-4.5-15-7-22.4-.3-.9-1.4-1.6-2.3-2.7-.4-1.1-.6-1.9-.7-3-1.6-4.1-3.4-7.9-5.2-12v-1.1c-1-2.1-2-3.9-3-6-.4-1.4-.7-2.5-1-4-3.2-7.8-6.3-15.2-9.7-22.6-1.1-2.5-2.9-4.7-4.3-7v-.3c-.7-.8-1.3-1.2-1.9-2v-2c-.7-1.4-1.3-2.6-2-4-.3-.8-.6-1.2-1-2.1-1.3-2.1-2.7-3.9-4-5.9v-1.1c-.2-1.4,0-2.5-.5-3.3-5.4-9.4-11.6-18.3-16.1-28.1-5.2-11.3-14.8-13.7-25.4-15.2l-.1.1Z"/>
  <path class="cls-4" d="M232.98,603.97c0,.4,0,.9-.3,1.9-.8,4.4-1.3,8.2-2.1,12.1-.7.7-1.2,1.3-1.6,2.3,0,.8,0,1.2-.3,1.9-1.2,2.5-1.9,4.9-3.1,7.1-.9,1.6-2.2,3.6-3.8,4.1-1,.3-3.2-1.5-4.1-2.9-2.6-4-4.9-8.3-7.3-12.5-2.7-4.8-7.4-6.7-12.2-4.4-2.7,1.3-5.2,3-7.4,5-14.7,13.8-31.5,22-52.2,22-14.7,0-27.8-4.2-40-11.6-14.1-8.6-16.9-8.3-26.8,5.2-3.9,5.3-6.6,5-9.7-.9-1.6-3.1-3.4-6.2-5.1-9.7-.7-3.5-1.4-6.5-2-9.5v-2c-.3-2.1-.7-3.6-1-5,0-.4,0-.9.2-1.9-.6-4.4-1.4-8.2-2.2-12.1v-2c-1-7.2-2-13.6-3-20v-3c-.3-2.5-.6-4.3-.9-6v-3c0-1.5,0-2.3.4-3,2,.9,3.5,2.1,5.2,2.8,3.4,1.4,7.2,4.2,10.2,3.6,4.6-.9,8.8-4.2,13.5-6.5h1.9c.8-.6,1.3-1.2,2.2-1.8,3.5,0,6.5,0,9.6.4-.7,3.6-1.8,6.9-1.9,10.1-.5,19,7.3,33.7,23.5,43.8,25.9,16.2,56.5,5.9,69.5-18.8,6-11.5,7.6-23.9,3-36.5,1.1,0,2.1,0,3.9.2,3.5.4,6.4.5,9.2.7.7,0,1.4,0,2.8.3,6.8,2.2,12.9,4.1,19.1,6,4.8,1.5,10.3-.7,12.5-5.3,1.4-3,2.2-6.2,3.5-9.3.5-1.3,1.6-2.4,2.4-3.5.4.2.8.4,1.3.6-1,10.5-2,21-3.2,31.4-1.1,10-2.3,20-3.5,30l-.2-.3Z"/>
  <path class="cls-6" d="M227.98,257.97v3.9c.3,1.2.6,1.6.9,2.1v2c.3,1.4.7,2.2,1,3v2.1c.7,2.1,1.3,3.6,2,5,0,.7,0,1.5-.2,2.9.3,2.1.7,3.6,1.2,5.1,0,.4,0,.9-.2,2-.2,4.9-.2,9.2-.2,12.6-3.5.3-6,.2-8.3.9-4.2,1.2-8.2,2.9-12.3,4.3,4-5.4,1.1-9.8-1.1-14.1-3.2-6.4-6-12.9-9.7-19-2.2-3.7-5.7-6.6-8.7-9.9-5.1,9.1-8.9,17.8-14.4,25.3-5.5,7.4-12.9,13.6-19.4,20.3.3.6.7,1.1,1,1.7,3.8,0,7.6-.3,11.3.1,1.4.2,2.7,1.8,3.7,3-7.4,0-14.5,0-22-.1-2.5,0-4.5,0-6.8-.2-1.1,0-1.9,0-3.2.2-3.5,0-6.5,0-9.6-.4-1.3-1.1-2.5-2.4-3.8-2.5-3.8-.3-7.7,0-11.5-.1-3.6-.2-7.3-.7-10.9-1v-1.7c4.4-.9,9-1.6,13.3-2.8,21.3-5.7,36-19.5,44.1-39.4,9.3-22.6,4.8-44.3-8.2-64.5-.9-1.5-3.2-3.1-4.7-3-3.2.4-3.5-1.5-4.4-3.5-2.7-6.3-5.6-12.5-8.9-20-1.8,5.7-3.8,5.1-6.9,2.6-3-2.4-6.8-3.9-10.3-5.8-3.4-1.9-6.7-4.2-10.3-5.9-4.1-1.9-8.3-3.4-12.5-5.4v-3.7c.9-2.1,1.8-4.2,3.2-6.8,3.2-2.2,3.5-7.2,8.3-6.1,4.2.9,7.9,1.9,11.5,5,5.1,4.4,11.2,7.6,14.1,14.1,0,.1.6,0,2.1.3v-19.1h1.7c.4,1,.9,1.9,1.1,2.9,1.7,6.6,3.2,13.2,5,19.7.4,1.5,1.9,2.8,2.9,4.6,0,2.5,0,4.5-.2,6.8,0,3.2.2,6,.5,8.9.6,0,1.1,0,1.7-.1v-9.6c0-7.8,0-15.1.4-22.4,1,.8,1.8,1.4,2.3,2.3,3.4,6,6.5,12.2,10.2,18.1,3.2,5,7.1,9.6,10.7,14.4.7-.3,1.4-.6,2.1-.8-3.4-31.9-13.3-62.4-21.5-93.5,1.4.9,2.3,2,2.9,3.2,1.9,3.4,3.5,7,5.5,10.3,3,4.8,6.3,9.3,9.5,13.9l6,9v1.1c1.3,2.4,2.6,4.1,3.9,5.9.3.5.6.9.8,1.9.6,1.7,1.4,2.9,2.2,4.1v2c.7,1.1,1.3,1.6,1.9,2v.4c2.8,7.2,5.5,14,8.5,20.7,1.4,3.1,3.6,6,5.5,8.9.3,1.1.6,2.2,1,3.9,0,.8,0,.9-.3,1.1-4.2-4.3-7.9-8.7-12-12.7-1.3-1.3-3.6-1.7-5.4-2.6-.5,2.1-1.9,4.5-1.5,6.4,2.1,8.8,4.6,17.6,7.1,26.3,6.2,21.6,17.5,41,27.8,60.7.2.3.8.4,2.4,1,.3-3.6,1.3-6.8.8-9.8-1.4-8.8-3.5-17.5-5.1-26.3-.5-2.9-.4-6-.3-8.8,1.7,4.1,3.3,7.9,4.8,11.7v2c1.5,5.9,2.9,11,4.5,16.2.4,1.4,1.5,2.6,2.3,3.8,0,.7,0,1.5-.2,2.8,0,1.1,0,1.7.2,2.2v1.9c.3,1.1.6,1.6,1,2.1l.1-.1Z"/>
  <path class="cls-2" d="M65.88,237.87c2-7.7,3.9-15.4,6.4-23.6,1.4-1.7,2.6-2.9,3.1-4.3,3.6-8.6,7.1-17.3,11-26,4.5,1.2,8.6,2.2,12.6,3.7,3.7,1.4,7,4,10.8,4.9,20.3,4.7,32.9,16.3,37.5,37.1,5.1,23.6-11.1,48.9-34.9,53.3-15.4,2.8-30.4-.6-45.4-3.3-5-.9-6.6-4.5-5.8-9.9,1.6-10.6,3.1-21.3,4.7-31.9h0Z"/>
  <path class="cls-7" d="M152.98,310.97c7.1,0,14.1.2,22,.1,2.5-.1,4.2-.1,6-.1,7.4.2,14.8.6,22.2.7,4.3,0,8.6-.9,12.9-.5,2.1.2,4.5,2,5.8,3.8,7.2,9.9,10.4,21.4,12,33.4,1.7,12.5,3.4,24.9,5,37.4.1.9-.3,1.8-.6,3.2-2.8-.9-5.3-1.7-8-2.7-2.8-6.3-9.1-7.4-14-8.6-7.8-1.9-16.1-2.3-24.2-2.5-10.2-.2-20.4.5-30.6.9-18.2.7-36.5,1.3-54.7,2-3.8.2-7.7,1.2-11.4.7-2.5-.3-4.8-2.7-6.8-4.4,13.9.8,26.6-3.4,38.5-8.1,8.4-3.3,13.4-12.5,16.5-21.1,3.9-11.1,6.4-22.7,9.5-34.1l-.1-.1Z"/>
  <path class="cls-4" d="M65.58,237.97c-1.2,10.5-2.7,21.1-4.3,31.8-.8,5.4.8,9,5.8,9.9,15,2.7,29.9,6.2,45.4,3.3,23.8-4.4,40-29.7,34.9-53.3-4.5-20.8-17.2-32.5-37.5-37.1-3.8-.9-7.1-3.5-10.8-4.9-3.9-1.5-8.1-2.5-12.6-4-.7-.8-1-1.2-1.3-1.7.2-.8.5-1.6,1.2-2.8,1.5-2.4,2.6-4.3,3.6-6.3.5-.8,1.1-1.5,1.9-2.9,1.2-3.1,2.2-5.6,3.1-8.1.2-1.1.4-2.3,1.2-3.7,1-.3,1.4-.3,1.8-.3,4.2,1.7,8.5,3.2,12.5,5.1,3.5,1.7,6.8,3.9,10.3,5.9,3.4,1.9,7.2,3.4,10.3,5.8,3.1,2.5,5.1,3.1,6.9-2.6,3.3,7.4,6.2,13.7,8.9,20,.9,2,1.2,4,4.4,3.5,1.4-.2,3.7,1.5,4.7,3,13.1,20.1,17.5,41.9,8.2,64.5-8.2,19.8-22.8,33.7-44.1,39.4-4.4,1.2-8.9,1.9-13.3,2.8v1.7c3.6.3,7.3.8,10.9,1,3.8.2,7.7-.1,11.5.1,1.3,0,2.5,1.4,3.4,2.5-6.8.1-13.1-.1-19.9-.5h-13.9c-1.1.3-1.9.6-2.7.9-2,0-4,0-6.6-.4-2.1-1.1-3.7-1.9-5.3-2.6-5.1-2.3-10.6-3.9-15.3-6.9-7.4-4.8-8.4-13-8.9-21.1-.1-2.2.8-5-2.9-5.1,2-10.6,4-21.3,6.2-31.9.3-1.7,1.3-3.2,2.3-5h0Z"/>
  <path class="cls-2" d="M184.68,552.67c5,12.9,3.4,25.3-2.6,36.8-13,24.7-43.6,35-69.5,18.8-16.2-10.1-23.9-24.8-23.5-43.8,0-3.3,1.2-6.5,2.2-10.2.8-.8,1.2-1.2,1.7-1.5h36.8c17-.2,34.1-.5,51.1-.7,1.1,0,2.3.2,3.8.6h0Z"/>
  <path class="cls-5" d="M44.98,430.47c3.7-2.2,5.5-.6,7.3,2.8,4.8,9.3,9.7,18.5,15,27.5,5.8,9.8,13.2,7.7,21.2,4.3,13.6-5.8,27.3-11.2,42.4-11,8.5.1,17.4-.6,25.6,1.3,10.5,2.4,20.7,6.9,30.8,10.9,3.9,1.6,7,2.7,10.3-1,1.1-1.2,3.3-1.9,4.9-1.8,6,.4,10.2-2.1,13-7.2,1.4-2.6,2.7-5.4,3.5-8.3,1.9-6.8,5.6-12.3,10.1-17.9,4.1-5.2,5.2-12.7,7.7-19.1.7-1.7,2-3.1,3.1-4.6.8,1.8,2.2,3.6,2.2,5.4-.1,10.3,0,20.6-1,30.9-1.2,12.4-6.9,22.4-18.4,28.4-.5.3-.9.9-1.4,1.8-.9.6-1.7,1-3,1.1-2.2,0-3.9,0-5.4.6-16.3,5.1-33,6.7-50,6.7h-44.8c-2.3,0-4.6,1.3-6.9,1.9-.7,0-1.5,0-2.9-.3-8.7-1.1-16.9-1.4-24.1-5.7-.4,0-.9,0-1.9-.1-1.4-.4-2.3-.6-3.1-.9-16.3-2.3-31.8-15.1-33-32.8-.3-4.1-.7-8.2-1-12.8l-.2-.1Z"/>
  <path class="cls-5" d="M177.98,128.57c-2-2.6-4-5.6-6-8.6-3.2-4.6-6.5-9.2-9.5-13.9-2.1-3.3-3.7-6.9-5.5-10.3-.7-1.2-1.5-2.3-2.9-3.2,8.2,31,18.1,61.5,21.5,93.5-.7.3-1.4.6-2.1.8-3.6-4.8-7.5-9.4-10.7-14.4-3.7-5.8-6.8-12.1-10.2-18.1-.5-.8-1.3-1.4-2.4-2.6-.5-11.6-.6-22.7-.6-33.8v-30.6c-2.8,26.9-3.4,53.8-1.6,80.7-1-1.4-2.4-2.6-2.9-4.2-1.8-6.5-3.3-13.2-5-19.7-.3-1-.7-1.9-1.1-2.9h-1.7v19.1c-1.5-.2-2-.1-2.1-.3-3-6.5-9-9.7-14.1-14.1-3.6-3.1-7.3-4.1-11.5-5-4.8-1-5.1,4-8.1,5.8,2.7-6.3,5.5-12.9,8.8-19.2,5.6-10.5,11.6-20.8,17.6-31.5,4.1-3.9,8.2-7.4,8.2-13.9,10.6,1.1,20.2,3.5,25.4,14.8,4.5,9.8,10.7,18.7,16.1,28.1.5.8.4,1.9.5,3.3l-.1.2Z"/>
  <path class="cls-1" d="M113.08,310.17c6.4.3,12.7.5,19.5.8,3.5,0,6.5,0,10.2.2,1.5,0,2.4,0,3.2-.2h6.6c-2.7,11.4-5.1,23-9,34.1-3.1,8.6-8.1,17.8-16.5,21.1-12,4.7-24.7,8.9-38.6,7.8-4.2-9-2.5-18.2-1.1-27.4.9-5.9,1.4-11.9,2.8-17.6,1.1-4.4,3.4-8.5,5.2-12.8.5-1.2,1.1-2.3,2-3.9.8-1,1.3-1.6,1.7-2.2.7,0,1.5,0,2.6.4,3.6,3.8,9.5,3.4,11.4-.3h0Z"/>
  <path class="cls-5" d="M54.78,614.27c.9,2.7,1.6,5.8,2.3,9.7,1.7,10.8,3.5,20.9,5.3,31.8,5.1-4.2,7.9-1.6,10.3,1.6,4.1,5.5,9.8,8.2,16.2,9.9,14,3.5,28.2,4.2,42.5,3.9,2.8,0,5.6.8,9.7,1.4-3.8,4.5-5.7,8.7-11.2,8.1,0-5.5-3.8-5.6-7.4-5.6-14.1-.2-28-1.5-41.4-6.7-9.7-3.8-9.8-3.5-11,6.3-.4,3.5.6,5.3,4.4,5.5,10.8.5,21.5,1.2,32.6,2.2,4.8.8,9.3,1.3,13.7,1.8-1.7.3-3.5,1-5.2.9-15.7-.6-31.4-1.2-47.1-2.1-1.7,0-3.3-1.6-5.3-2.7-.3-.9-.3-1.7-.3-3.2-.3-2.5-.7-4.2-1-6v-3c-.7-1.5-1.3-2.3-1.9-3.1-1.5-13.1-3.1-26.1-4.6-39.2-.4-3.7-.6-7.4-.7-11.5h.1Z"/>
  <path class="cls-5" d="M233.38,603.87c.8-9.9,2-19.9,3.1-29.9,1.1-10.5,2.1-20.9,3.2-31.4-.4-.2-.8-.4-1.3-.6-.8,1.2-1.8,2.3-2.4,3.5-1.3,3.1-2.1,6.3-3.5,9.3-2.2,4.6-7.7,6.8-12.5,5.3-6.2-1.9-12.3-3.8-18.7-6,3.1-.6,6.5-.9,10.3-1.2,7.6,1.5,12-.2,15.7-6.1.5-.8,1.3-1.5,2.1-2.1,5.6-3.8,10.7-7.8,10.9-15.5,0-1,1.3-2,2.1-3.1.5,0,.9.2,1.4.3,0,2.6.3,5.3,0,7.8-1.8,15.1-3.6,30.2-5.7,45.2-1.1,8.1-2.8,16.1-4.5,24.3l-.2.2Z"/>
  <path class="cls-5" d="M56.98,275.27c3.8-.3,2.9,2.6,3,4.7.5,8.1,1.5,16.2,8.9,21.1,4.6,3,10.1,4.6,15.3,6.9,1.6.7,3.1,1.5,4.8,2.6-12.1.1-22.1-4.9-29.7-14.8-.6.1-1.2.2-1.8.3-1.9,7-3.7,13.9-5.6,20.9-.4,0-.7-.2-1.1-.2,2-13.6,4.1-27.3,6.2-41.3v-.2Z"/>
  <path class="cls-6" d="M76.98,555.87c-4.4,2.3-8.5,5.6-13.2,6.5-3.1.6-6.9-2.2-10.2-3.6-1.7-.7-3.2-1.9-5.2-3.1-1-.8-1.6-1.3-2.2-1.7,0-.4,0-.9.2-2-.3-2.8-.7-4.9-1.2-7,0-.4,0-.9.2-2,.2-2.8,0-4.9.3-7,.1-1.4.9-2.7,1.4-4-.4,4.7,2.1,7.9,5.8,11.1,3.1,12.5,6.7,14.9,18.6,12.9,1.8-.3,3.7,0,5.6-.1h-.1Z"/>
  <path class="cls-1" d="M77.28,555.87c-2.2,0-4.1-.2-5.9.1-11.9,2-15.5-.4-18.4-12.6,2.1.9,4.9,1.6,6.1,3.4,3.8,5.6,9,6.7,15.1,6.2,1.3-.1,2.6,0,4.4.4.4,1.1.4,1.8.3,2.5h-1.6Z"/>
  <path class="cls-6" d="M84.78,182.17c.6.3.8.7,1.1,1.5-3.5,8.9-6.9,17.6-10.5,26.3-.6,1.4-1.7,2.6-3,4,3.8-10.5,7.9-21,12.3-31.8h.1Z"/>
  <path class="cls-5" d="M48.68,571.27c1.2,6.1,2.2,12.5,3.2,19.3-.7-1.7-1.6-3.8-2-6.1-.7-4.3-1-8.6-1.2-13.3v.1Z"/>
  <path class="cls-5" d="M46.88,531.67c-.4,1.7-1.2,3-1.3,4.3-.2,2.1,0,4.2-.3,6.7-2-5.1-2.9-10.5-1.9-16,.4-.1.9-.2,1.3-.3.7,1.7,1.4,3.3,2.2,5.3h0Z"/>
  <path class="cls-5" d="M51.68,593.27c1,3.5,1.8,7.3,2.5,11.4-1-3.5-1.8-7.3-2.5-11.4Z"/>
  <path class="cls-1" d="M92.58,552.67c-.1.6-.6.9-1.3,1.3-3.3,0-6.4,0-9.9-.2-.5-.4-.5-.6-.5-.8,3.8-.2,7.6-.4,11.7-.4v.1Z"/>
  <path class="cls-7" d="M40.28,354.67c.2-3,.6-6.2,1.4-9.6-.1,3-.6,6.2-1.4,9.6Z"/>
  <path class="cls-5" d="M197.98,553.47c-2.7.2-5.5,0-8.7-.3,2.6-.2,5.6-.1,8.7.3Z"/>
  <path class="cls-5" d="M94.58,161.97c-.6,2.4-1.5,4.9-2.6,7.8-2.9-3.4.5-5.3,2.6-7.8Z"/>
  <path class="cls-5" d="M45.08,545.37c.5,1.7,1,3.9,1.2,6.3-.6-1.8-.9-3.8-1.2-6.3Z"/>
  <path class="cls-7" d="M61.78,671.27c.6,1.5.9,3.2,1.2,5.3-.5-1.4-1-3.2-1.2-5.3Z"/>
  <path class="cls-5" d="M47.78,562.27c.6,1.5.9,3.2,1.2,5.4-.5-1.4-.9-3.3-1.2-5.4Z"/>
  <path class="cls-5" d="M89.58,172.97c-.7,1.9-1.8,3.9-3.2,5.9.7-1.9,1.8-3.9,3.2-5.9Z"/>
  <path class="cls-5" d="M53.78,607.27c.6,1.2.9,2.6,1.2,4.4-.5-1.1-1-2.6-1.2-4.4Z"/>
  <path class="cls-5" d="M46.08,554.37c.6,0,1.2.6,1.9,1.4v3c-.7-1.1-1.3-2.5-1.9-4.3v-.1Z"/>
  <path class="cls-5" d="M97.98,157.67c-.5.3-.9.3-1.6.4.2-1.2.6-2.4,1.4-3.8.3.9.3,2,.3,3.5l-.1-.1Z"/>
  <path class="cls-7" d="M46.38,306.87c0-1.2.5-2.4,1.3-3.8,0,1.2-.5,2.4-1.3,3.8Z"/>
  <path class="cls-7" d="M48.18,298.77c-.1-.7,0-1.7.4-2.7.1.8,0,1.6-.4,2.7Z"/>
  <path class="cls-6" d="M80.68,552.97c.3.2.3.4.3.8-.5.9-1,1.4-1.8,2.1-.3-.7-.2-1.4-.2-2.5.4-.4.9-.4,1.6-.4h.1Z"/>
  <path class="cls-7" d="M43.98,317.27c.4-.3.9-.3,1.7-.3.2.8,0,1.7-.4,2.8-.5,0-.8-.1-1.1-.6-.1-.6-.1-1.1-.1-1.9h-.1Z"/>
  <path class="cls-7" d="M59.98,665.27c.6.4,1.3,1.2,1.9,2.4-.6-.4-1.3-1.2-1.9-2.4Z"/>
  <path class="cls-7" d="M168.58,518.77c.5.2.8.6,1.1,1,0,0-.4.3-.6.5-.2-.5-.4-.9-.5-1.6v.1Z"/>
  <path class="cls-7" d="M52.18,271.77c-.1-.7,0-1.7.5-2.7.1.8,0,1.6-.5,2.7Z"/>
  <path class="cls-5" d="M98.68,310.07c-.1.6-.6,1.2-1.4,1.9-.6,0-.9-.3-1.2-.7.7-.5,1.5-.8,2.6-1.1v-.1Z"/>
  <path class="cls-1" d="M79.08,476.37c.7,0,1.6.2,2.7.5.3.1.3.6.3.9-1-.2-1.9-.6-3-1.4Z"/>
  <path class="cls-7" d="M44.18,326.77c0-.4,0-1.1.5-1.8,0,.5,0,1-.5,1.8Z"/>
  <path class="cls-7" d="M51.18,278.77c-.3-.4-.4-1-.4-1.7.3.4.4,1,.4,1.7Z"/>
  <path class="cls-7" d="M43.18,333.77c0-.4,0-1.1.5-1.8,0,.5,0,1-.5,1.8Z"/>
  <path class="cls-6" d="M121.38,683.97c-4.8-.5-9.3-1-13.6-1.8,7.5-.6,14.9-.9,22.2-1.2,5.4.2,7.4-4,11.2-8.5-4.1-.6-6.9-1.4-9.7-1.4-14.3.3-28.5-.4-42.5-3.9-6.4-1.6-12.1-4.4-16.2-9.9-2.4-3.2-5.2-5.8-10.3-1.6-1.9-10.9-3.6-20.9-5.3-31.4,1.7,2.7,3.4,5.8,5.1,8.9,3.1,6,5.8,6.2,9.7.9,10-13.5,12.8-13.7,26.8-5.2,12.2,7.4,25.3,11.6,40,11.6,20.8,0,37.5-8.2,52.2-22,2.1-2,4.7-3.7,7.4-5,4.8-2.3,9.5-.4,12.2,4.4,2.4,4.2,4.7,8.5,7.3,12.5.9,1.4,3.1,3.2,4.1,2.9,1.5-.5,2.9-2.4,3.8-4.1,1.2-2.1,1.9-4.5,3.3-6.8-.9,9.8-2.3,19.6-3.8,29.4-.3,2.1-1.1,4.1-1.9,6.8-2.4-2-3.8-3.3-5.7-4.8-7,9.2-16.2,13.7-27,14.7-12.7,1.2-25.4,1.6-38.2,2.6-2.5.2-4.9,1.2-7.3,1.8,0,.7,0,1.5-.1,2.2,3.6,2,7.3,3.9,11.2,6.1,7.1.4,13.9.6,20.5,1-8.9.8-17.4,1.5-25.9,1.7-8.9.3-17.9,0-26.8,0h-2.6M211.78,647.87c-1-1.9-2-3.8-2.9-5.8-3.5-8-9.7-10.4-17.4-6.3-5.6,2.9-10.7,6.9-16.4,9.5-23.6,10.4-47.5,11.1-71.4.6-3.8-1.7-7.7-3.2-11.7-4.3-7.3-2.1-13.8,3.9-16.5,11.2-2.2,6,4.3,6.8,7.7,9.2,1.3.9,3,1.5,4.7,1.7,8.2,1.2,16.4,2.8,24.6,3.1,13.1.5,26.3.3,39.5,0,12-.2,23.9-.2,35.9-1.1,7.2-.6,14.4-2,20.6-6.6,4-2.9,5.6-5.9,3.4-11.3l-.1.1Z"/>
  <path class="cls-5" d="M155.98,680.97c-3.6-2-7.3-3.9-10.9-5.9,0-.7,0-1.5.1-2.2,2.4-.6,4.8-1.6,7.3-1.8,12.7-.9,25.5-1.4,38.2-2.6,10.8-1,20.1-5.6,27-14.7,1.8,1.6,3.3,2.8,5.7,4.8.8-2.7,1.6-4.7,1.9-6.8,1.5-9.8,2.9-19.5,4-29.6-.2-.7-.2-1.2.1-1.9,1.1-.3,1.8-.4,2.6-.4-1.4,10.8-2.8,21.7-4.3,32.5-1.1,8.2-2.5,16.4-3.6,24.6-.5,4-2.6,5.8-6.6,6-15.4.6-30.7,1.3-46.1,2-11.8.6-23.5,1.5-35.3,1.8-4,0-7.9-1.4-12.1-2.5,8.8-.4,17.7-.2,26.7-.4,8.5-.2,17.1-.9,26.4-1.7,6-.6,11.3-.9,16.6-1.2,6-.3,11.9-.5,17.9-1,3-.2,5.2-4.4,4.1-8-.9-3.1-2-6.1-6.6-4.3-13.5,5.6-27.7,6.5-42,6.3-2.5,0-5,.2-7.4.6-3.6.6-5.3,2.6-3.8,6.4h.1Z"/>
  <path class="cls-1" d="M111.28,483.27c2-.9,4.3-2.2,6.6-2.2,14.9-.2,29.9-.1,44.8,0,17,0,33.7-1.6,50-6.7,1.5-.5,3.2-.5,5.1-.5-8.1,2.9-16.2,6.4-24.8,8-22.1,4-44.5,4.8-66.9,4.1-4.9-.1-9.7-1.5-14.8-2.6v-.1Z"/>
  <path class="cls-1" d="M83.98,477.37c7.1,4,15.3,4.3,23.6,5.4-6.7,0-13.8-.2-20.8-.9-1.1-.1-1.9-2.7-2.9-4.5h.1Z"/>
  <path class="cls-5" d="M230.88,617.97c.5-3.8,1.1-7.6,1.8-11.7,0,3.5-.1,7.3-.8,11.4-.7.3-.9.3-1,.3Z"/>
  <path class="cls-6" d="M230.58,618.07h1.1c.3.4.3.9.3,1.6-.7.3-1.5.4-2.6.4,0-.6.5-1.3,1.2-2Z"/>
  <path class="cls-5" d="M181.28,310.77c-2,.3-3.8.2-5.9.2-1.8-1-3.1-2.7-4.5-2.8-3.7-.4-7.5-.1-11.3-.1-.3-.6-.7-1.1-1-1.7,6.5-6.7,13.8-12.8,19.4-20.3,5.6-7.5,9.4-16.2,14.4-25.3,3,3.3,6.5,6.2,8.7,9.9,3.7,6.1,6.5,12.6,9.7,19,2.2,4.4,5.1,8.7,1.1,14.1,4.1-1.5,8.1-3.1,12.3-4.3,2.3-.7,4.8-.5,8.3-.9,0-3.4,0-7.7.2-12.3,1.2,5.8,2.4,12,3.2,18.2,1.2,9.2,2.1,18.4,3,27.6.1,1.4-.2,2.8-1.5,4.5-.8-1.6-1.8-3.2-2.4-5-2.3-6.9-4.5-13.8-6.6-20.8-1.7-5.4-5.6-6.5-10.5-5.8-12.1,1.8-24.2,3.6-36.6,5.7v.1Z"/>
  <path class="cls-4" d="M214.98,214.97c.2,3,0,6.1.6,9,1.6,8.8,3.7,17.5,5.1,26.3.5,3-.5,6.3-.8,9.8-1.5-.6-2.2-.7-2.4-1-10.3-19.8-21.5-39.1-27.8-60.7-2.5-8.7-5-17.5-7.1-26.3-.4-1.9.9-4.3,1.5-6.4,1.8.8,4.1,1.2,5.4,2.6,4.1,4,7.8,8.4,12.2,13,1.4,1.8,2.3,3.3,3.2,4.7v1.1c1.7,4.4,3.3,8.1,4.9,11.9.2.8.5,1.6.9,3.1,1.5,4.8,2.8,8.8,4.1,12.9h.2Z"/>
  <path class="cls-5" d="M200.98,175.57c-1.8-2.6-4-5.4-5.5-8.5-3-6.7-5.7-13.5-8.5-20.7,1.5,1.9,3.2,4.2,4.3,6.6,3.3,7.3,6.5,14.8,9.7,22.6Z"/>
  <path class="cls-5" d="M215.28,215.27c-1.5-4.3-2.8-8.4-4.2-12.9.7.4,1.8,1.1,2.1,2,2.5,7.3,4.8,14.7,7,22.4-1.7-3.6-3.2-7.4-5-11.5h.1Z"/>
  <path class="cls-5" d="M226.98,248.57c-.8-.9-1.9-2.1-2.3-3.4-1.6-5.1-3-10.3-4.5-15.8,1.5,2.7,3.5,5.6,4.6,8.9,1.1,3.2,1.5,6.7,2.2,10.4v-.1Z"/>
  <path class="cls-5" d="M210.18,198.77c-1.9-3.5-3.5-7.3-5.2-11.4,1.8,3.5,3.6,7.3,5.2,11.4Z"/>
  <path class="cls-5" d="M181.98,135.57c-1.3-1.4-2.6-3.2-3.9-5.3,1.3,1.4,2.6,3.2,3.9,5.3Z"/>
  <path class="cls-5" d="M204.98,185.57c-.9-1.1-1.8-2.5-2.9-4.3-.1-.5-.1-.6-.1-1.1,1,1.5,2,3.2,3,5.4Z"/>
  <path class="cls-5" d="M231.98,275.57c-.7-1-1.3-2.4-2-4.2.7,1,1.3,2.4,2,4.2Z"/>
  <path class="cls-5" d="M232.98,283.57c-.5-1.1-1-2.6-1.2-4.4.6,1.2.9,2.6,1.2,4.4Z"/>
  <path class="cls-5" d="M184.88,141.67c-.8-.9-1.6-2-2.2-3.5.8.9,1.5,2,2.2,3.5Z"/>
  <path class="cls-5" d="M230.18,268.77c-.5-.6-.9-1.3-1.2-2.5.5.5.9,1.4,1.2,2.5Z"/>
  <path class="cls-5" d="M229.18,263.77c-.5-.3-.8-.8-1.1-1.5.4.3.9.8,1.1,1.5Z"/>
  <path class="cls-5" d="M228.18,257.77c-.5-.3-.8-.8-1.1-1.5.4.3.9.8,1.1,1.5Z"/>
  <path class="cls-5" d="M186.88,145.67c-.6-.2-1.2-.6-1.9-1.4.6.2,1.2.6,1.9,1.4Z"/>
  <path class="cls-5" d="M227.18,253.77c-.3-.4-.5-1-.4-1.7.3.4.5,1,.4,1.7Z"/>
  <path class="cls-7" d="M147.88,168.47c-1.8-27.4-1.2-54.3,1.6-81.1v30.6c0,11.1,0,22.2.3,33.7.2,7.7.2,15.1-.2,22.9-.8.5-1.2.5-1.6.5v-6.5l-.1-.1Z"/>
  <path class="cls-5" d="M147.78,175.27c.7-.3,1.1-.3,1.9-.3.3,3,.3,6.1.3,9.1-.6,0-1.1,0-1.7.1-.2-2.9-.5-5.8-.5-8.9h0Z"/>
  <path class="cls-5" d="M145.78,310.77c-.7.4-1.5.5-2.6.5.7-.4,1.5-.5,2.6-.5Z"/>
  <path class="cls-5" d="M112.58,310.07c-1.5,3.7-7.4,4.1-10.6.4,3.3-.4,6.7-.4,10.6-.4Z"/>
  <path class="cls-7" d="M129.98,680.57c-7.4.7-14.7,1-22.6,1.4-11.2-.6-22-1.4-32.7-1.9-3.8-.2-4.9-2-4.4-5.5,1.2-9.7,1.3-10.1,11-6.3,13.4,5.2,27.3,6.5,41.4,6.7,3.6,0,7.3,0,7.4,5.6h-.1Z"/>
  <path class="cls-5" d="M211.88,648.27c2.1,5,.5,8-3.5,10.9-6.2,4.6-13.4,6-20.6,6.6-11.9,1-23.9,1-35.9,1.1-13.2.2-26.3.4-39.5,0-8.2-.3-16.4-2-24.6-3.1-1.6-.2-3.3-.8-4.7-1.7-3.4-2.3-9.9-3.2-7.7-9.2,2.7-7.3,9.2-13.4,16.5-11.2,4,1.2,7.9,2.7,11.7,4.3,23.9,10.5,47.7,9.8,71.4-.6,5.7-2.5,10.8-6.5,16.4-9.5,7.7-4.1,13.9-1.7,17.4,6.3.9,2,1.9,3.8,3,6.1h.1Z"/>
  <path class="cls-7" d="M156.18,681.17c-1.8-4,0-6,3.5-6.6,2.4-.4,4.9-.7,7.4-.6,14.4.2,28.5-.7,42-6.3,4.5-1.9,5.7,1.1,6.6,4.3,1,3.5-1.2,7.7-4.1,8-5.9.5-11.9.7-17.9,1-5.3.3-10.6.6-16.3,1-7.3-.2-14.1-.3-21.2-.7v-.1Z"/>
</svg>